<mxfile host="Electron" agent="Mozilla/5.0 (Windows NT 10.0; Win64; x64) AppleWebKit/537.36 (KHTML, like Gecko) draw.io/24.7.17 Chrome/128.0.6613.36 Electron/32.0.1 Safari/537.36" version="24.7.17" pages="2">
  <diagram name="Rcv Classes" id="UWhajokZ38RgtMSt8xlH">
    <mxGraphModel dx="2074" dy="1205" grid="1" gridSize="10" guides="1" tooltips="1" connect="1" arrows="1" fold="1" page="1" pageScale="2" pageWidth="850" pageHeight="1100" math="0" shadow="0">
      <root>
        <mxCell id="0" />
        <mxCell id="1" parent="0" />
        <mxCell id="wfjphnxRxJXE9nSPYc2k-1" value="CExplorerView" style="swimlane;fontStyle=0;childLayout=stackLayout;horizontal=1;startSize=26;fillColor=none;horizontalStack=0;resizeParent=1;resizeParentMax=0;resizeLast=0;collapsible=1;marginBottom=0;whiteSpace=wrap;html=1;" parent="1" vertex="1">
          <mxGeometry x="440" y="960" width="320" height="130" as="geometry" />
        </mxCell>
        <mxCell id="wfjphnxRxJXE9nSPYc2k-2" value="+ m_rootLogger: CHostLoggerItem" style="text;strokeColor=none;fillColor=none;align=left;verticalAlign=top;spacingLeft=4;spacingRight=4;overflow=hidden;rotatable=0;points=[[0,0.5],[1,0.5]];portConstraint=eastwest;whiteSpace=wrap;html=1;" parent="wfjphnxRxJXE9nSPYc2k-1" vertex="1">
          <mxGeometry y="26" width="320" height="26" as="geometry" />
        </mxCell>
        <mxCell id="wfjphnxRxJXE9nSPYc2k-3" value="+ m_remoteHosts: list&amp;lt;CLoggerItemBase*&amp;gt;" style="text;strokeColor=none;fillColor=none;align=left;verticalAlign=top;spacingLeft=4;spacingRight=4;overflow=hidden;rotatable=0;points=[[0,0.5],[1,0.5]];portConstraint=eastwest;whiteSpace=wrap;html=1;" parent="wfjphnxRxJXE9nSPYc2k-1" vertex="1">
          <mxGeometry y="52" width="320" height="26" as="geometry" />
        </mxCell>
        <mxCell id="wfjphnxRxJXE9nSPYc2k-4" value="+ m_logFiles: list&amp;lt;CLoggerItemBase*&amp;gt;" style="text;strokeColor=none;fillColor=none;align=left;verticalAlign=top;spacingLeft=4;spacingRight=4;overflow=hidden;rotatable=0;points=[[0,0.5],[1,0.5]];portConstraint=eastwest;whiteSpace=wrap;html=1;" parent="wfjphnxRxJXE9nSPYc2k-1" vertex="1">
          <mxGeometry y="78" width="320" height="26" as="geometry" />
        </mxCell>
        <mxCell id="wfjphnxRxJXE9nSPYc2k-7" value="+ m_pCurLogger: CLoggerItemBase*" style="text;strokeColor=none;fillColor=none;align=left;verticalAlign=top;spacingLeft=4;spacingRight=4;overflow=hidden;rotatable=0;points=[[0,0.5],[1,0.5]];portConstraint=eastwest;whiteSpace=wrap;html=1;" parent="wfjphnxRxJXE9nSPYc2k-1" vertex="1">
          <mxGeometry y="104" width="320" height="26" as="geometry" />
        </mxCell>
        <mxCell id="wfjphnxRxJXE9nSPYc2k-8" value="CHostLoggerItem" style="swimlane;fontStyle=0;childLayout=stackLayout;horizontal=1;startSize=26;fillColor=none;horizontalStack=0;resizeParent=1;resizeParentMax=0;resizeLast=0;collapsible=1;marginBottom=0;whiteSpace=wrap;html=1;" parent="1" vertex="1">
          <mxGeometry x="40" y="360" width="320" height="104" as="geometry" />
        </mxCell>
        <mxCell id="wfjphnxRxJXE9nSPYc2k-9" value="+ m_remoteName: wstring" style="text;strokeColor=none;fillColor=none;align=left;verticalAlign=top;spacingLeft=4;spacingRight=4;overflow=hidden;rotatable=0;points=[[0,0.5],[1,0.5]];portConstraint=eastwest;whiteSpace=wrap;html=1;" parent="wfjphnxRxJXE9nSPYc2k-8" vertex="1">
          <mxGeometry y="26" width="320" height="26" as="geometry" />
        </mxCell>
        <mxCell id="wfjphnxRxJXE9nSPYc2k-10" value="+ m_rgPackedMessages:&amp;nbsp;vector&amp;lt;CPackedMessage&amp;gt;" style="text;strokeColor=none;fillColor=none;align=left;verticalAlign=top;spacingLeft=4;spacingRight=4;overflow=hidden;rotatable=0;points=[[0,0.5],[1,0.5]];portConstraint=eastwest;whiteSpace=wrap;html=1;" parent="wfjphnxRxJXE9nSPYc2k-8" vertex="1">
          <mxGeometry y="52" width="320" height="26" as="geometry" />
        </mxCell>
        <mxCell id="wfjphnxRxJXE9nSPYc2k-11" value="+ m_rgFilteredMessages:&amp;nbsp;vector&amp;lt;CPackedMessage&amp;gt;" style="text;strokeColor=none;fillColor=none;align=left;verticalAlign=top;spacingLeft=4;spacingRight=4;overflow=hidden;rotatable=0;points=[[0,0.5],[1,0.5]];portConstraint=eastwest;whiteSpace=wrap;html=1;" parent="wfjphnxRxJXE9nSPYc2k-8" vertex="1">
          <mxGeometry y="78" width="320" height="26" as="geometry" />
        </mxCell>
        <mxCell id="oxedq6HxFDASkijP_ceo-3" value="&lt;div style=&quot;box-sizing:border-box;width:100%;background:#e4e4e4;padding:2px;&quot;&gt;&lt;font color=&quot;#000000&quot;&gt;&lt;b&gt;LOGGER_TYPE&lt;/b&gt;&lt;/font&gt;&lt;/div&gt;&lt;table style=&quot;width:100%;font-size:1em;&quot; cellpadding=&quot;2&quot; cellspacing=&quot;0&quot;&gt;&lt;tbody&gt;&lt;tr&gt;&lt;td&gt;LT_LOGROOT&lt;br&gt;&lt;/td&gt;&lt;td&gt;root logger such as host or remote host&lt;/td&gt;&lt;/tr&gt;&lt;tr&gt;&lt;td&gt;LT_PROCESS&lt;/td&gt;&lt;td&gt;32-bit application, local or remote&lt;/td&gt;&lt;/tr&gt;&lt;tr&gt;&lt;td&gt;LT_PROCESS64&lt;br&gt;&lt;/td&gt;&lt;td&gt;64-bit application, local or remote&lt;/td&gt;&lt;/tr&gt;&lt;tr&gt;&lt;td&gt;LT_LOGFILE&lt;/td&gt;&lt;td&gt;.pgl or .csv file&lt;/td&gt;&lt;/tr&gt;&lt;/tbody&gt;&lt;/table&gt;" style="verticalAlign=top;align=left;overflow=fill;html=1;whiteSpace=wrap;" parent="1" vertex="1">
          <mxGeometry x="40" y="40" width="320" height="90" as="geometry" />
        </mxCell>
        <mxCell id="oxedq6HxFDASkijP_ceo-5" value="&lt;div style=&quot;box-sizing:border-box;width:100%;background:#e4e4e4;padding:2px;&quot;&gt;&lt;font color=&quot;#000000&quot;&gt;&lt;b&gt;LOGGER_STATE&lt;/b&gt;&lt;/font&gt;&lt;/div&gt;&lt;table style=&quot;width:100%;font-size:1em;&quot; cellpadding=&quot;2&quot; cellspacing=&quot;0&quot;&gt;&lt;tbody&gt;&lt;tr&gt;&lt;td&gt;LS_PAUSED&lt;/td&gt;&lt;td&gt;capture paused&lt;/td&gt;&lt;/tr&gt;&lt;tr&gt;&lt;td&gt;LS_RUN&lt;/td&gt;&lt;td&gt;capture active&lt;/td&gt;&lt;/tr&gt;&lt;tr&gt;&lt;td&gt;LS_TERMINATED&lt;/td&gt;&lt;td&gt;process terminated, or a log file&lt;/td&gt;&lt;/tr&gt;&lt;/tbody&gt;&lt;/table&gt;" style="verticalAlign=top;align=left;overflow=fill;html=1;whiteSpace=wrap;" parent="1" vertex="1">
          <mxGeometry x="40" y="160" width="320" height="80" as="geometry" />
        </mxCell>
        <mxCell id="oxedq6HxFDASkijP_ceo-6" value="&lt;p style=&quot;margin:0px;margin-top:4px;text-align:center;&quot;&gt;CLoggerItemBase&lt;br&gt;&lt;b&gt;Interface&lt;/b&gt;&lt;/p&gt;&lt;hr size=&quot;1&quot; style=&quot;border-style:solid;&quot;&gt;&lt;p style=&quot;margin:0px;margin-left:4px;&quot;&gt;+ m_name: wstring&lt;/p&gt;&lt;p style=&quot;margin:0px;margin-left:4px;&quot;&gt;+ m_type: LOGGER_TYPE&lt;br&gt;&lt;/p&gt;&lt;p style=&quot;margin:0px;margin-left:4px;&quot;&gt;+ m_state: LOGGER_STATE&lt;br&gt;&lt;/p&gt;&lt;p style=&quot;margin:0px;margin-left:4px;&quot;&gt;&lt;span style=&quot;background-color: initial;&quot;&gt;+ m_dwTraceLevel: DWORD&lt;/span&gt;&lt;br&gt;&lt;/p&gt;&lt;p style=&quot;margin:0px;margin-left:4px;&quot;&gt;+ m_children: list&amp;lt;CLoggerItemBase*&amp;gt;&lt;span style=&quot;background-color: initial;&quot;&gt;&lt;br&gt;&lt;/span&gt;&lt;/p&gt;&lt;p style=&quot;margin:0px;margin-left:4px;&quot;&gt;+ m_pParent&lt;span style=&quot;background-color: initial;&quot;&gt;: CLoggerItemBase*&lt;/span&gt;&lt;span style=&quot;background-color: initial;&quot;&gt;&lt;br&gt;&lt;/span&gt;&lt;/p&gt;&lt;p style=&quot;margin:0px;margin-left:4px;&quot;&gt;+ m_filterStr: wstring&lt;br&gt;&lt;/p&gt;&lt;p style=&quot;margin:0px;margin-left:4px;&quot;&gt;+ m_filterActive: bool&lt;br&gt;&lt;/p&gt;&lt;p style=&quot;margin:0px;margin-left:4px;&quot;&gt;+ m_bROmode: bool&lt;/p&gt;&lt;hr size=&quot;1&quot; style=&quot;border-style:solid;&quot;&gt;&lt;p style=&quot;margin:0px;margin-left:4px;&quot;&gt;+ GetNumErrors() const:&amp;nbsp;size_t&lt;br&gt;+ GetNumMessages() const:&amp;nbsp;size_t&lt;/p&gt;&lt;p style=&quot;margin:0px;margin-left:4px;&quot;&gt;+&amp;nbsp;GetMessageData(size_t i) const: const BYTE*&lt;/p&gt;&lt;p style=&quot;margin:0px;margin-left:4px;&quot;&gt;+ FilterLoggerItems(): void&lt;br&gt;&lt;/p&gt;&lt;p style=&quot;margin:0px;margin-left:4px;&quot;&gt;+&amp;nbsp;ClearLog(): void&lt;/p&gt;" style="verticalAlign=top;align=left;overflow=fill;html=1;whiteSpace=wrap;" parent="1" vertex="1">
          <mxGeometry x="440" y="40" width="320" height="260" as="geometry" />
        </mxCell>
        <mxCell id="oxedq6HxFDASkijP_ceo-17" value="CProcessLoggerItem" style="swimlane;fontStyle=0;childLayout=stackLayout;horizontal=1;startSize=26;fillColor=none;horizontalStack=0;resizeParent=1;resizeParentMax=0;resizeLast=0;collapsible=1;marginBottom=0;whiteSpace=wrap;html=1;" parent="1" vertex="1">
          <mxGeometry x="440" y="360" width="320" height="494" as="geometry" />
        </mxCell>
        <mxCell id="oxedq6HxFDASkijP_ceo-18" value="+ m_hFile: HANDLE //pipe" style="text;strokeColor=none;fillColor=none;align=left;verticalAlign=top;spacingLeft=4;spacingRight=4;overflow=hidden;rotatable=0;points=[[0,0.5],[1,0.5]];portConstraint=eastwest;whiteSpace=wrap;html=1;" parent="oxedq6HxFDASkijP_ceo-17" vertex="1">
          <mxGeometry y="26" width="320" height="26" as="geometry" />
        </mxCell>
        <mxCell id="oxedq6HxFDASkijP_ceo-19" value="+ m_pid: DWORD" style="text;strokeColor=none;fillColor=none;align=left;verticalAlign=top;spacingLeft=4;spacingRight=4;overflow=hidden;rotatable=0;points=[[0,0.5],[1,0.5]];portConstraint=eastwest;whiteSpace=wrap;html=1;" parent="oxedq6HxFDASkijP_ceo-17" vertex="1">
          <mxGeometry y="52" width="320" height="26" as="geometry" />
        </mxCell>
        <mxCell id="oxedq6HxFDASkijP_ceo-20" value="+ m_displayName: wstring" style="text;strokeColor=none;fillColor=none;align=left;verticalAlign=top;spacingLeft=4;spacingRight=4;overflow=hidden;rotatable=0;points=[[0,0.5],[1,0.5]];portConstraint=eastwest;whiteSpace=wrap;html=1;" parent="oxedq6HxFDASkijP_ceo-17" vertex="1">
          <mxGeometry y="78" width="320" height="26" as="geometry" />
        </mxCell>
        <mxCell id="oxedq6HxFDASkijP_ceo-23" value="+ m_pipeName: WCHAR[128]" style="text;strokeColor=none;fillColor=none;align=left;verticalAlign=top;spacingLeft=4;spacingRight=4;overflow=hidden;rotatable=0;points=[[0,0.5],[1,0.5]];portConstraint=eastwest;whiteSpace=wrap;html=1;" parent="oxedq6HxFDASkijP_ceo-17" vertex="1">
          <mxGeometry y="104" width="320" height="26" as="geometry" />
        </mxCell>
        <mxCell id="oxedq6HxFDASkijP_ceo-24" value="+ m_rgMessageOffsets:&amp;nbsp;vector&amp;lt;LONG&amp;gt;" style="text;strokeColor=none;fillColor=none;align=left;verticalAlign=top;spacingLeft=4;spacingRight=4;overflow=hidden;rotatable=0;points=[[0,0.5],[1,0.5]];portConstraint=eastwest;whiteSpace=wrap;html=1;" parent="oxedq6HxFDASkijP_ceo-17" vertex="1">
          <mxGeometry y="130" width="320" height="26" as="geometry" />
        </mxCell>
        <mxCell id="oxedq6HxFDASkijP_ceo-25" value="+ m_rgFilteredMessages:&amp;nbsp;vector&amp;lt;LONG&amp;gt;" style="text;strokeColor=none;fillColor=none;align=left;verticalAlign=top;spacingLeft=4;spacingRight=4;overflow=hidden;rotatable=0;points=[[0,0.5],[1,0.5]];portConstraint=eastwest;whiteSpace=wrap;html=1;" parent="oxedq6HxFDASkijP_ceo-17" vertex="1">
          <mxGeometry y="156" width="320" height="26" as="geometry" />
        </mxCell>
        <mxCell id="oxedq6HxFDASkijP_ceo-26" value="+ m_errorCnt: size_t" style="text;strokeColor=none;fillColor=none;align=left;verticalAlign=top;spacingLeft=4;spacingRight=4;overflow=hidden;rotatable=0;points=[[0,0.5],[1,0.5]];portConstraint=eastwest;whiteSpace=wrap;html=1;" parent="oxedq6HxFDASkijP_ceo-17" vertex="1">
          <mxGeometry y="182" width="320" height="26" as="geometry" />
        </mxCell>
        <mxCell id="oxedq6HxFDASkijP_ceo-27" value="+&amp;nbsp;m_llMaxLogFileSize: LONGLONG" style="text;strokeColor=none;fillColor=none;align=left;verticalAlign=top;spacingLeft=4;spacingRight=4;overflow=hidden;rotatable=0;points=[[0,0.5],[1,0.5]];portConstraint=eastwest;whiteSpace=wrap;html=1;" parent="oxedq6HxFDASkijP_ceo-17" vertex="1">
          <mxGeometry y="208" width="320" height="26" as="geometry" />
        </mxCell>
        <mxCell id="oxedq6HxFDASkijP_ceo-28" value="+ m_op: OVERLAPPED" style="text;strokeColor=none;fillColor=none;align=left;verticalAlign=top;spacingLeft=4;spacingRight=4;overflow=hidden;rotatable=0;points=[[0,0.5],[1,0.5]];portConstraint=eastwest;whiteSpace=wrap;html=1;" parent="oxedq6HxFDASkijP_ceo-17" vertex="1">
          <mxGeometry y="234" width="320" height="26" as="geometry" />
        </mxCell>
        <mxCell id="oxedq6HxFDASkijP_ceo-29" value="+&amp;nbsp;m_dwMMFsize: DWORD" style="text;strokeColor=none;fillColor=none;align=left;verticalAlign=top;spacingLeft=4;spacingRight=4;overflow=hidden;rotatable=0;points=[[0,0.5],[1,0.5]];portConstraint=eastwest;whiteSpace=wrap;html=1;" parent="oxedq6HxFDASkijP_ceo-17" vertex="1">
          <mxGeometry y="260" width="320" height="26" as="geometry" />
        </mxCell>
        <mxCell id="oxedq6HxFDASkijP_ceo-30" value="+ m_hLogFile: HANDLE" style="text;strokeColor=none;fillColor=none;align=left;verticalAlign=top;spacingLeft=4;spacingRight=4;overflow=hidden;rotatable=0;points=[[0,0.5],[1,0.5]];portConstraint=eastwest;whiteSpace=wrap;html=1;" parent="oxedq6HxFDASkijP_ceo-17" vertex="1">
          <mxGeometry y="286" width="320" height="26" as="geometry" />
        </mxCell>
        <mxCell id="oxedq6HxFDASkijP_ceo-32" value="+ m_hMapping: HANDLE" style="text;strokeColor=none;fillColor=none;align=left;verticalAlign=top;spacingLeft=4;spacingRight=4;overflow=hidden;rotatable=0;points=[[0,0.5],[1,0.5]];portConstraint=eastwest;whiteSpace=wrap;html=1;" parent="oxedq6HxFDASkijP_ceo-17" vertex="1">
          <mxGeometry y="312" width="320" height="26" as="geometry" />
        </mxCell>
        <mxCell id="oxedq6HxFDASkijP_ceo-31" value="+ m_logStart: BYTE*" style="text;strokeColor=none;fillColor=none;align=left;verticalAlign=top;spacingLeft=4;spacingRight=4;overflow=hidden;rotatable=0;points=[[0,0.5],[1,0.5]];portConstraint=eastwest;whiteSpace=wrap;html=1;" parent="oxedq6HxFDASkijP_ceo-17" vertex="1">
          <mxGeometry y="338" width="320" height="26" as="geometry" />
        </mxCell>
        <mxCell id="oxedq6HxFDASkijP_ceo-33" value="+ m_logWritePos: BYTE*" style="text;strokeColor=none;fillColor=none;align=left;verticalAlign=top;spacingLeft=4;spacingRight=4;overflow=hidden;rotatable=0;points=[[0,0.5],[1,0.5]];portConstraint=eastwest;whiteSpace=wrap;html=1;" parent="oxedq6HxFDASkijP_ceo-17" vertex="1">
          <mxGeometry y="364" width="320" height="26" as="geometry" />
        </mxCell>
        <mxCell id="oxedq6HxFDASkijP_ceo-34" value="+&amp;nbsp;m_pendingBytes: DWORD" style="text;strokeColor=none;fillColor=none;align=left;verticalAlign=top;spacingLeft=4;spacingRight=4;overflow=hidden;rotatable=0;points=[[0,0.5],[1,0.5]];portConstraint=eastwest;whiteSpace=wrap;html=1;" parent="oxedq6HxFDASkijP_ceo-17" vertex="1">
          <mxGeometry y="390" width="320" height="26" as="geometry" />
        </mxCell>
        <mxCell id="oxedq6HxFDASkijP_ceo-35" value="+&amp;nbsp;m_pendingWritePos: BYTE*" style="text;strokeColor=none;fillColor=none;align=left;verticalAlign=top;spacingLeft=4;spacingRight=4;overflow=hidden;rotatable=0;points=[[0,0.5],[1,0.5]];portConstraint=eastwest;whiteSpace=wrap;html=1;" parent="oxedq6HxFDASkijP_ceo-17" vertex="1">
          <mxGeometry y="416" width="320" height="26" as="geometry" />
        </mxCell>
        <mxCell id="oxedq6HxFDASkijP_ceo-36" value="+&amp;nbsp;m_pendingLengthUnknown: bool" style="text;strokeColor=none;fillColor=none;align=left;verticalAlign=top;spacingLeft=4;spacingRight=4;overflow=hidden;rotatable=0;points=[[0,0.5],[1,0.5]];portConstraint=eastwest;whiteSpace=wrap;html=1;" parent="oxedq6HxFDASkijP_ceo-17" vertex="1">
          <mxGeometry y="442" width="320" height="26" as="geometry" />
        </mxCell>
        <mxCell id="oxedq6HxFDASkijP_ceo-37" value="+&amp;nbsp;m_tszBuffer: BYTE[PIPEBUFFERSIZE]" style="text;strokeColor=none;fillColor=none;align=left;verticalAlign=top;spacingLeft=4;spacingRight=4;overflow=hidden;rotatable=0;points=[[0,0.5],[1,0.5]];portConstraint=eastwest;whiteSpace=wrap;html=1;" parent="oxedq6HxFDASkijP_ceo-17" vertex="1">
          <mxGeometry y="468" width="320" height="26" as="geometry" />
        </mxCell>
        <mxCell id="oxedq6HxFDASkijP_ceo-21" value="Extends" style="endArrow=block;endSize=16;endFill=0;html=1;rounded=0;" parent="1" source="wfjphnxRxJXE9nSPYc2k-8" edge="1">
          <mxGeometry width="160" relative="1" as="geometry">
            <mxPoint x="180" y="300" as="sourcePoint" />
            <mxPoint x="440" y="246" as="targetPoint" />
          </mxGeometry>
        </mxCell>
        <mxCell id="oxedq6HxFDASkijP_ceo-22" value="Extends" style="endArrow=block;endSize=16;endFill=0;html=1;rounded=0;" parent="1" source="oxedq6HxFDASkijP_ceo-17" target="oxedq6HxFDASkijP_ceo-6" edge="1">
          <mxGeometry width="160" relative="1" as="geometry">
            <mxPoint x="650" y="330" as="sourcePoint" />
            <mxPoint x="760" y="300" as="targetPoint" />
          </mxGeometry>
        </mxCell>
        <mxCell id="oxedq6HxFDASkijP_ceo-38" value="CFileLoggerItem" style="swimlane;fontStyle=0;childLayout=stackLayout;horizontal=1;startSize=26;fillColor=none;horizontalStack=0;resizeParent=1;resizeParentMax=0;resizeLast=0;collapsible=1;marginBottom=0;whiteSpace=wrap;html=1;" parent="1" vertex="1">
          <mxGeometry x="840" y="360" width="320" height="234" as="geometry" />
        </mxCell>
        <mxCell id="oxedq6HxFDASkijP_ceo-39" value="+ m_hLogFile: HANDLE" style="text;strokeColor=none;fillColor=none;align=left;verticalAlign=top;spacingLeft=4;spacingRight=4;overflow=hidden;rotatable=0;points=[[0,0.5],[1,0.5]];portConstraint=eastwest;whiteSpace=wrap;html=1;" parent="oxedq6HxFDASkijP_ceo-38" vertex="1">
          <mxGeometry y="26" width="320" height="26" as="geometry" />
        </mxCell>
        <mxCell id="oxedq6HxFDASkijP_ceo-42" value="+ m_hMapping: HANDLE" style="text;strokeColor=none;fillColor=none;align=left;verticalAlign=top;spacingLeft=4;spacingRight=4;overflow=hidden;rotatable=0;points=[[0,0.5],[1,0.5]];portConstraint=eastwest;whiteSpace=wrap;html=1;" parent="oxedq6HxFDASkijP_ceo-38" vertex="1">
          <mxGeometry y="52" width="320" height="26" as="geometry" />
        </mxCell>
        <mxCell id="oxedq6HxFDASkijP_ceo-43" value="+ m_logStart: BYTE*" style="text;strokeColor=none;fillColor=none;align=left;verticalAlign=top;spacingLeft=4;spacingRight=4;overflow=hidden;rotatable=0;points=[[0,0.5],[1,0.5]];portConstraint=eastwest;whiteSpace=wrap;html=1;" parent="oxedq6HxFDASkijP_ceo-38" vertex="1">
          <mxGeometry y="78" width="320" height="26" as="geometry" />
        </mxCell>
        <mxCell id="oxedq6HxFDASkijP_ceo-40" value="+ m_rgMessageOffsets:&amp;nbsp;vector&amp;lt;LONG&amp;gt;" style="text;strokeColor=none;fillColor=none;align=left;verticalAlign=top;spacingLeft=4;spacingRight=4;overflow=hidden;rotatable=0;points=[[0,0.5],[1,0.5]];portConstraint=eastwest;whiteSpace=wrap;html=1;" parent="oxedq6HxFDASkijP_ceo-38" vertex="1">
          <mxGeometry y="104" width="320" height="26" as="geometry" />
        </mxCell>
        <mxCell id="oxedq6HxFDASkijP_ceo-41" value="+ m_rgFilteredMessages:&amp;nbsp;vector&amp;lt;LONG&amp;gt;" style="text;strokeColor=none;fillColor=none;align=left;verticalAlign=top;spacingLeft=4;spacingRight=4;overflow=hidden;rotatable=0;points=[[0,0.5],[1,0.5]];portConstraint=eastwest;whiteSpace=wrap;html=1;" parent="oxedq6HxFDASkijP_ceo-38" vertex="1">
          <mxGeometry y="130" width="320" height="26" as="geometry" />
        </mxCell>
        <mxCell id="oxedq6HxFDASkijP_ceo-44" value="+ m_errorCnt: size_t" style="text;strokeColor=none;fillColor=none;align=left;verticalAlign=top;spacingLeft=4;spacingRight=4;overflow=hidden;rotatable=0;points=[[0,0.5],[1,0.5]];portConstraint=eastwest;whiteSpace=wrap;html=1;" parent="oxedq6HxFDASkijP_ceo-38" vertex="1">
          <mxGeometry y="156" width="320" height="26" as="geometry" />
        </mxCell>
        <mxCell id="oxedq6HxFDASkijP_ceo-45" value="+&amp;nbsp;m_path: wstring" style="text;strokeColor=none;fillColor=none;align=left;verticalAlign=top;spacingLeft=4;spacingRight=4;overflow=hidden;rotatable=0;points=[[0,0.5],[1,0.5]];portConstraint=eastwest;whiteSpace=wrap;html=1;" parent="oxedq6HxFDASkijP_ceo-38" vertex="1">
          <mxGeometry y="182" width="320" height="26" as="geometry" />
        </mxCell>
        <mxCell id="oxedq6HxFDASkijP_ceo-46" value="+&amp;nbsp;m_mapLogger2Appname:&amp;nbsp;map&amp;lt;DWORD, wstring&amp;gt;" style="text;strokeColor=none;fillColor=none;align=left;verticalAlign=top;spacingLeft=4;spacingRight=4;overflow=hidden;rotatable=0;points=[[0,0.5],[1,0.5]];portConstraint=eastwest;whiteSpace=wrap;html=1;" parent="oxedq6HxFDASkijP_ceo-38" vertex="1">
          <mxGeometry y="208" width="320" height="26" as="geometry" />
        </mxCell>
        <mxCell id="oxedq6HxFDASkijP_ceo-47" value="Extends" style="endArrow=block;endSize=16;endFill=0;html=1;rounded=0;" parent="1" source="oxedq6HxFDASkijP_ceo-38" target="oxedq6HxFDASkijP_ceo-6" edge="1">
          <mxGeometry width="160" relative="1" as="geometry">
            <mxPoint x="800" y="370" as="sourcePoint" />
            <mxPoint x="680" y="300" as="targetPoint" />
          </mxGeometry>
        </mxCell>
        <mxCell id="oxedq6HxFDASkijP_ceo-48" value="CCsvFileLoggerItem" style="swimlane;fontStyle=0;childLayout=stackLayout;horizontal=1;startSize=26;fillColor=none;horizontalStack=0;resizeParent=1;resizeParentMax=0;resizeLast=0;collapsible=1;marginBottom=0;whiteSpace=wrap;html=1;" parent="1" vertex="1">
          <mxGeometry x="1240" y="360" width="320" height="156" as="geometry" />
        </mxCell>
        <mxCell id="oxedq6HxFDASkijP_ceo-52" value="+ m_rgMessages:&amp;nbsp;vector&amp;lt;BYTE*&amp;gt;" style="text;strokeColor=none;fillColor=none;align=left;verticalAlign=top;spacingLeft=4;spacingRight=4;overflow=hidden;rotatable=0;points=[[0,0.5],[1,0.5]];portConstraint=eastwest;whiteSpace=wrap;html=1;" parent="oxedq6HxFDASkijP_ceo-48" vertex="1">
          <mxGeometry y="26" width="320" height="26" as="geometry" />
        </mxCell>
        <mxCell id="oxedq6HxFDASkijP_ceo-53" value="+ m_rgFilteredMessages:&amp;nbsp;vector&amp;lt;BYTE*&amp;gt;" style="text;strokeColor=none;fillColor=none;align=left;verticalAlign=top;spacingLeft=4;spacingRight=4;overflow=hidden;rotatable=0;points=[[0,0.5],[1,0.5]];portConstraint=eastwest;whiteSpace=wrap;html=1;" parent="oxedq6HxFDASkijP_ceo-48" vertex="1">
          <mxGeometry y="52" width="320" height="26" as="geometry" />
        </mxCell>
        <mxCell id="oxedq6HxFDASkijP_ceo-54" value="+ m_errorCnt: size_t" style="text;strokeColor=none;fillColor=none;align=left;verticalAlign=top;spacingLeft=4;spacingRight=4;overflow=hidden;rotatable=0;points=[[0,0.5],[1,0.5]];portConstraint=eastwest;whiteSpace=wrap;html=1;" parent="oxedq6HxFDASkijP_ceo-48" vertex="1">
          <mxGeometry y="78" width="320" height="26" as="geometry" />
        </mxCell>
        <mxCell id="oxedq6HxFDASkijP_ceo-55" value="+&amp;nbsp;m_path: wstring" style="text;strokeColor=none;fillColor=none;align=left;verticalAlign=top;spacingLeft=4;spacingRight=4;overflow=hidden;rotatable=0;points=[[0,0.5],[1,0.5]];portConstraint=eastwest;whiteSpace=wrap;html=1;" parent="oxedq6HxFDASkijP_ceo-48" vertex="1">
          <mxGeometry y="104" width="320" height="26" as="geometry" />
        </mxCell>
        <mxCell id="oxedq6HxFDASkijP_ceo-56" value="+&amp;nbsp;m_mapLogger2Appname:&amp;nbsp;map&amp;lt;DWORD, wstring&amp;gt;" style="text;strokeColor=none;fillColor=none;align=left;verticalAlign=top;spacingLeft=4;spacingRight=4;overflow=hidden;rotatable=0;points=[[0,0.5],[1,0.5]];portConstraint=eastwest;whiteSpace=wrap;html=1;" parent="oxedq6HxFDASkijP_ceo-48" vertex="1">
          <mxGeometry y="130" width="320" height="26" as="geometry" />
        </mxCell>
        <mxCell id="oxedq6HxFDASkijP_ceo-57" value="Extends" style="endArrow=block;endSize=16;endFill=0;html=1;rounded=0;" parent="1" source="oxedq6HxFDASkijP_ceo-48" target="oxedq6HxFDASkijP_ceo-6" edge="1">
          <mxGeometry width="160" relative="1" as="geometry">
            <mxPoint x="1240" y="320" as="sourcePoint" />
            <mxPoint x="1280" y="270" as="targetPoint" />
          </mxGeometry>
        </mxCell>
        <mxCell id="oxedq6HxFDASkijP_ceo-58" value="CPackedMessage" style="swimlane;fontStyle=0;childLayout=stackLayout;horizontal=1;startSize=26;fillColor=none;horizontalStack=0;resizeParent=1;resizeParentMax=0;resizeLast=0;collapsible=1;marginBottom=0;whiteSpace=wrap;html=1;" parent="1" vertex="1">
          <mxGeometry x="40" y="520" width="320" height="78" as="geometry" />
        </mxCell>
        <mxCell id="oxedq6HxFDASkijP_ceo-59" value="+ _v._offset: LONGLONG:48" style="text;strokeColor=none;fillColor=none;align=left;verticalAlign=top;spacingLeft=4;spacingRight=4;overflow=hidden;rotatable=0;points=[[0,0.5],[1,0.5]];portConstraint=eastwest;whiteSpace=wrap;html=1;" parent="oxedq6HxFDASkijP_ceo-58" vertex="1">
          <mxGeometry y="26" width="320" height="26" as="geometry" />
        </mxCell>
        <mxCell id="oxedq6HxFDASkijP_ceo-60" value="+ _v._itemId: LONGLONG:16" style="text;strokeColor=none;fillColor=none;align=left;verticalAlign=top;spacingLeft=4;spacingRight=4;overflow=hidden;rotatable=0;points=[[0,0.5],[1,0.5]];portConstraint=eastwest;whiteSpace=wrap;html=1;" parent="oxedq6HxFDASkijP_ceo-58" vertex="1">
          <mxGeometry y="52" width="320" height="26" as="geometry" />
        </mxCell>
        <mxCell id="oxedq6HxFDASkijP_ceo-62" value="CLoggerTracker (singleton)" style="swimlane;fontStyle=1;align=center;verticalAlign=top;childLayout=stackLayout;horizontal=1;startSize=26;horizontalStack=0;resizeParent=1;resizeParentMax=0;resizeLast=0;collapsible=1;marginBottom=0;whiteSpace=wrap;html=1;" parent="1" vertex="1">
          <mxGeometry x="840" y="40" width="320" height="164" as="geometry" />
        </mxCell>
        <mxCell id="oxedq6HxFDASkijP_ceo-63" value="+ _loggersMap:&amp;nbsp;map&amp;lt;USHORT, CLoggerItemBase*&amp;gt;" style="text;strokeColor=none;fillColor=none;align=left;verticalAlign=top;spacingLeft=4;spacingRight=4;overflow=hidden;rotatable=0;points=[[0,0.5],[1,0.5]];portConstraint=eastwest;whiteSpace=wrap;html=1;" parent="oxedq6HxFDASkijP_ceo-62" vertex="1">
          <mxGeometry y="26" width="320" height="26" as="geometry" />
        </mxCell>
        <mxCell id="oxedq6HxFDASkijP_ceo-64" value="" style="line;strokeWidth=1;fillColor=none;align=left;verticalAlign=middle;spacingTop=-1;spacingLeft=3;spacingRight=3;rotatable=0;labelPosition=right;points=[];portConstraint=eastwest;strokeColor=inherit;" parent="oxedq6HxFDASkijP_ceo-62" vertex="1">
          <mxGeometry y="52" width="320" height="8" as="geometry" />
        </mxCell>
        <mxCell id="oxedq6HxFDASkijP_ceo-65" value="+ Instance():&amp;nbsp;static CLoggerTracker&amp;amp;" style="text;strokeColor=none;fillColor=none;align=left;verticalAlign=top;spacingLeft=4;spacingRight=4;overflow=hidden;rotatable=0;points=[[0,0.5],[1,0.5]];portConstraint=eastwest;whiteSpace=wrap;html=1;" parent="oxedq6HxFDASkijP_ceo-62" vertex="1">
          <mxGeometry y="60" width="320" height="26" as="geometry" />
        </mxCell>
        <mxCell id="oxedq6HxFDASkijP_ceo-67" value="+ AddLogger(CLoggerItemBase* pLoggerItem): void" style="text;strokeColor=none;fillColor=none;align=left;verticalAlign=top;spacingLeft=4;spacingRight=4;overflow=hidden;rotatable=0;points=[[0,0.5],[1,0.5]];portConstraint=eastwest;whiteSpace=wrap;html=1;" parent="oxedq6HxFDASkijP_ceo-62" vertex="1">
          <mxGeometry y="86" width="320" height="26" as="geometry" />
        </mxCell>
        <mxCell id="oxedq6HxFDASkijP_ceo-68" value="+ RemoveLogger(CLoggerItemBase* pLoggerItem): void" style="text;strokeColor=none;fillColor=none;align=left;verticalAlign=top;spacingLeft=4;spacingRight=4;overflow=hidden;rotatable=0;points=[[0,0.5],[1,0.5]];portConstraint=eastwest;whiteSpace=wrap;html=1;" parent="oxedq6HxFDASkijP_ceo-62" vertex="1">
          <mxGeometry y="112" width="320" height="26" as="geometry" />
        </mxCell>
        <mxCell id="oxedq6HxFDASkijP_ceo-69" value="+ GetLogger(USHORT itemId):&amp;nbsp;CLoggerItemBase*" style="text;strokeColor=none;fillColor=none;align=left;verticalAlign=top;spacingLeft=4;spacingRight=4;overflow=hidden;rotatable=0;points=[[0,0.5],[1,0.5]];portConstraint=eastwest;whiteSpace=wrap;html=1;" parent="oxedq6HxFDASkijP_ceo-62" vertex="1">
          <mxGeometry y="138" width="320" height="26" as="geometry" />
        </mxCell>
        <mxCell id="oxedq6HxFDASkijP_ceo-66" value="Use" style="endArrow=open;endSize=12;dashed=1;html=1;rounded=0;" parent="1" source="wfjphnxRxJXE9nSPYc2k-8" target="oxedq6HxFDASkijP_ceo-58" edge="1">
          <mxGeometry width="160" relative="1" as="geometry">
            <mxPoint x="290" y="500" as="sourcePoint" />
            <mxPoint x="450" y="510" as="targetPoint" />
          </mxGeometry>
        </mxCell>
        <mxCell id="oxedq6HxFDASkijP_ceo-70" value="CTraceReader (thread+virt_window)" style="swimlane;fontStyle=1;align=center;verticalAlign=top;childLayout=stackLayout;horizontal=1;startSize=26;horizontalStack=0;resizeParent=1;resizeParentMax=0;resizeLast=0;collapsible=1;marginBottom=0;whiteSpace=wrap;html=1;" parent="1" vertex="1">
          <mxGeometry x="40" y="1160" width="320" height="242" as="geometry" />
        </mxCell>
        <mxCell id="oxedq6HxFDASkijP_ceo-71" value="+ m_threadId: DWORD" style="text;strokeColor=none;fillColor=none;align=left;verticalAlign=top;spacingLeft=4;spacingRight=4;overflow=hidden;rotatable=0;points=[[0,0.5],[1,0.5]];portConstraint=eastwest;whiteSpace=wrap;html=1;" parent="oxedq6HxFDASkijP_ceo-70" vertex="1">
          <mxGeometry y="26" width="320" height="26" as="geometry" />
        </mxCell>
        <mxCell id="oxedq6HxFDASkijP_ceo-75" value="+ m_mainWindow: HWND" style="text;strokeColor=none;fillColor=none;align=left;verticalAlign=top;spacingLeft=4;spacingRight=4;overflow=hidden;rotatable=0;points=[[0,0.5],[1,0.5]];portConstraint=eastwest;whiteSpace=wrap;html=1;" parent="oxedq6HxFDASkijP_ceo-70" vertex="1">
          <mxGeometry y="52" width="320" height="26" as="geometry" />
        </mxCell>
        <mxCell id="oxedq6HxFDASkijP_ceo-74" value="+ m_hWnd: HWND" style="text;strokeColor=none;fillColor=none;align=left;verticalAlign=top;spacingLeft=4;spacingRight=4;overflow=hidden;rotatable=0;points=[[0,0.5],[1,0.5]];portConstraint=eastwest;whiteSpace=wrap;html=1;" parent="oxedq6HxFDASkijP_ceo-70" vertex="1">
          <mxGeometry y="78" width="320" height="26" as="geometry" />
        </mxCell>
        <mxCell id="oxedq6HxFDASkijP_ceo-77" value="+ m_loggersCS:CRITICAL_SECTION" style="text;strokeColor=none;fillColor=none;align=left;verticalAlign=top;spacingLeft=4;spacingRight=4;overflow=hidden;rotatable=0;points=[[0,0.5],[1,0.5]];portConstraint=eastwest;whiteSpace=wrap;html=1;" parent="oxedq6HxFDASkijP_ceo-70" vertex="1">
          <mxGeometry y="104" width="320" height="26" as="geometry" />
        </mxCell>
        <mxCell id="oxedq6HxFDASkijP_ceo-76" value="+&amp;nbsp;m_loggers:&amp;nbsp;list&amp;lt;CHostLoggerItem*&amp;gt;" style="text;strokeColor=none;fillColor=none;align=left;verticalAlign=top;spacingLeft=4;spacingRight=4;overflow=hidden;rotatable=0;points=[[0,0.5],[1,0.5]];portConstraint=eastwest;whiteSpace=wrap;html=1;" parent="oxedq6HxFDASkijP_ceo-70" vertex="1">
          <mxGeometry y="130" width="320" height="26" as="geometry" />
        </mxCell>
        <mxCell id="oxedq6HxFDASkijP_ceo-72" value="" style="line;strokeWidth=1;fillColor=none;align=left;verticalAlign=middle;spacingTop=-1;spacingLeft=3;spacingRight=3;rotatable=0;labelPosition=right;points=[];portConstraint=eastwest;strokeColor=inherit;" parent="oxedq6HxFDASkijP_ceo-70" vertex="1">
          <mxGeometry y="156" width="320" height="8" as="geometry" />
        </mxCell>
        <mxCell id="oxedq6HxFDASkijP_ceo-73" value="+ OnTimer(HWND hWnd, int timerID): void" style="text;strokeColor=none;fillColor=none;align=left;verticalAlign=top;spacingLeft=4;spacingRight=4;overflow=hidden;rotatable=0;points=[[0,0.5],[1,0.5]];portConstraint=eastwest;whiteSpace=wrap;html=1;" parent="oxedq6HxFDASkijP_ceo-70" vertex="1">
          <mxGeometry y="164" width="320" height="26" as="geometry" />
        </mxCell>
        <mxCell id="oxedq6HxFDASkijP_ceo-78" value="+ HandleProcessLoggerOverlappedResult(): void" style="text;strokeColor=none;fillColor=none;align=left;verticalAlign=top;spacingLeft=4;spacingRight=4;overflow=hidden;rotatable=0;points=[[0,0.5],[1,0.5]];portConstraint=eastwest;whiteSpace=wrap;html=1;" parent="oxedq6HxFDASkijP_ceo-70" vertex="1">
          <mxGeometry y="190" width="320" height="26" as="geometry" />
        </mxCell>
        <mxCell id="oxedq6HxFDASkijP_ceo-79" value="+&amp;nbsp;HandleHostLoggerOverlappedResult(): void" style="text;strokeColor=none;fillColor=none;align=left;verticalAlign=top;spacingLeft=4;spacingRight=4;overflow=hidden;rotatable=0;points=[[0,0.5],[1,0.5]];portConstraint=eastwest;whiteSpace=wrap;html=1;" parent="oxedq6HxFDASkijP_ceo-70" vertex="1">
          <mxGeometry y="216" width="320" height="26" as="geometry" />
        </mxCell>
        <mxCell id="oxedq6HxFDASkijP_ceo-80" value="CPGNProfilerView" style="swimlane;fontStyle=0;childLayout=stackLayout;horizontal=1;startSize=26;fillColor=none;horizontalStack=0;resizeParent=1;resizeParentMax=0;resizeLast=0;collapsible=1;marginBottom=0;whiteSpace=wrap;html=1;" parent="1" vertex="1">
          <mxGeometry x="440" y="1160" width="320" height="78" as="geometry" />
        </mxCell>
        <mxCell id="oxedq6HxFDASkijP_ceo-81" value="+&amp;nbsp;m_pCurLogger:&amp;nbsp;CLoggerItemBase*" style="text;strokeColor=none;fillColor=none;align=left;verticalAlign=top;spacingLeft=4;spacingRight=4;overflow=hidden;rotatable=0;points=[[0,0.5],[1,0.5]];portConstraint=eastwest;whiteSpace=wrap;html=1;" parent="oxedq6HxFDASkijP_ceo-80" vertex="1">
          <mxGeometry y="26" width="320" height="26" as="geometry" />
        </mxCell>
        <mxCell id="oxedq6HxFDASkijP_ceo-82" value="+&amp;nbsp;m_numMessages: size_t" style="text;strokeColor=none;fillColor=none;align=left;verticalAlign=top;spacingLeft=4;spacingRight=4;overflow=hidden;rotatable=0;points=[[0,0.5],[1,0.5]];portConstraint=eastwest;whiteSpace=wrap;html=1;" parent="oxedq6HxFDASkijP_ceo-80" vertex="1">
          <mxGeometry y="52" width="320" height="26" as="geometry" />
        </mxCell>
        <mxCell id="oxedq6HxFDASkijP_ceo-83" value="CMainFrame" style="swimlane;fontStyle=0;childLayout=stackLayout;horizontal=1;startSize=26;fillColor=none;horizontalStack=0;resizeParent=1;resizeParentMax=0;resizeLast=0;collapsible=1;marginBottom=0;whiteSpace=wrap;html=1;" parent="1" vertex="1">
          <mxGeometry x="40" y="960" width="320" height="130" as="geometry" />
        </mxCell>
        <mxCell id="oxedq6HxFDASkijP_ceo-84" value="+&amp;nbsp;m_explorer:&amp;nbsp;CExplorerView" style="text;strokeColor=none;fillColor=none;align=left;verticalAlign=top;spacingLeft=4;spacingRight=4;overflow=hidden;rotatable=0;points=[[0,0.5],[1,0.5]];portConstraint=eastwest;whiteSpace=wrap;html=1;" parent="oxedq6HxFDASkijP_ceo-83" vertex="1">
          <mxGeometry y="26" width="320" height="26" as="geometry" />
        </mxCell>
        <mxCell id="oxedq6HxFDASkijP_ceo-85" value="+&amp;nbsp;m_view:&amp;nbsp;CPGNProfilerView" style="text;strokeColor=none;fillColor=none;align=left;verticalAlign=top;spacingLeft=4;spacingRight=4;overflow=hidden;rotatable=0;points=[[0,0.5],[1,0.5]];portConstraint=eastwest;whiteSpace=wrap;html=1;" parent="oxedq6HxFDASkijP_ceo-83" vertex="1">
          <mxGeometry y="52" width="320" height="26" as="geometry" />
        </mxCell>
        <mxCell id="oxedq6HxFDASkijP_ceo-86" value="+ m_traceReader:&amp;nbsp;CTraceReader" style="text;strokeColor=none;fillColor=none;align=left;verticalAlign=top;spacingLeft=4;spacingRight=4;overflow=hidden;rotatable=0;points=[[0,0.5],[1,0.5]];portConstraint=eastwest;whiteSpace=wrap;html=1;" parent="oxedq6HxFDASkijP_ceo-83" vertex="1">
          <mxGeometry y="78" width="320" height="26" as="geometry" />
        </mxCell>
        <mxCell id="oxedq6HxFDASkijP_ceo-87" value="+&amp;nbsp;_lock:&amp;nbsp;CriticalSection" style="text;strokeColor=none;fillColor=none;align=left;verticalAlign=top;spacingLeft=4;spacingRight=4;overflow=hidden;rotatable=0;points=[[0,0.5],[1,0.5]];portConstraint=eastwest;whiteSpace=wrap;html=1;" parent="oxedq6HxFDASkijP_ceo-83" vertex="1">
          <mxGeometry y="104" width="320" height="26" as="geometry" />
        </mxCell>
        <mxCell id="oxedq6HxFDASkijP_ceo-88" value="Use" style="endArrow=open;endSize=12;dashed=1;html=1;rounded=0;" parent="1" source="oxedq6HxFDASkijP_ceo-83" target="wfjphnxRxJXE9nSPYc2k-1" edge="1">
          <mxGeometry width="160" relative="1" as="geometry">
            <mxPoint x="140" y="1190" as="sourcePoint" />
            <mxPoint x="420" y="930" as="targetPoint" />
          </mxGeometry>
        </mxCell>
        <mxCell id="oxedq6HxFDASkijP_ceo-89" value="Use" style="endArrow=open;endSize=12;dashed=1;html=1;rounded=0;" parent="1" source="oxedq6HxFDASkijP_ceo-83" target="oxedq6HxFDASkijP_ceo-80" edge="1">
          <mxGeometry width="160" relative="1" as="geometry">
            <mxPoint x="170" y="1200" as="sourcePoint" />
            <mxPoint x="400" y="1140" as="targetPoint" />
          </mxGeometry>
        </mxCell>
        <mxCell id="oxedq6HxFDASkijP_ceo-90" value="Use" style="endArrow=open;endSize=12;dashed=1;html=1;rounded=0;" parent="1" source="oxedq6HxFDASkijP_ceo-83" target="oxedq6HxFDASkijP_ceo-70" edge="1">
          <mxGeometry width="160" relative="1" as="geometry">
            <mxPoint x="170" y="1110" as="sourcePoint" />
            <mxPoint x="250" y="1130" as="targetPoint" />
          </mxGeometry>
        </mxCell>
        <mxCell id="oxedq6HxFDASkijP_ceo-91" value="Receiver Class Diagram" style="text;html=1;align=center;verticalAlign=middle;resizable=0;points=[];autosize=1;strokeColor=none;fillColor=none;fontSize=24;" parent="1" vertex="1">
          <mxGeometry x="1240" y="40" width="280" height="40" as="geometry" />
        </mxCell>
      </root>
    </mxGraphModel>
  </diagram>
  <diagram id="CUFrF76zvUBW_SLUUiRW" name="Snd Classes">
    <mxGraphModel dx="2074" dy="1205" grid="1" gridSize="10" guides="1" tooltips="1" connect="1" arrows="1" fold="1" page="1" pageScale="2" pageWidth="850" pageHeight="1100" math="0" shadow="0">
      <root>
        <mxCell id="0" />
        <mxCell id="1" parent="0" />
        <mxCell id="o2fHaPVTxburHWxgGlT0-1" value="DH_PIPE" style="swimlane;fontStyle=1;align=center;verticalAlign=top;childLayout=stackLayout;horizontal=1;startSize=26;horizontalStack=0;resizeParent=1;resizeParentMax=0;resizeLast=0;collapsible=1;marginBottom=0;whiteSpace=wrap;html=1;" parent="1" vertex="1">
          <mxGeometry x="440" y="40" width="320" height="528" as="geometry">
            <mxRectangle x="440" y="40" width="90" height="30" as="alternateBounds" />
          </mxGeometry>
        </mxCell>
        <mxCell id="o2fHaPVTxburHWxgGlT0-2" value="+ m_pipeCS:&amp;nbsp;CRITICAL_SECTION" style="text;strokeColor=none;fillColor=none;align=left;verticalAlign=top;spacingLeft=4;spacingRight=4;overflow=hidden;rotatable=0;points=[[0,0.5],[1,0.5]];portConstraint=eastwest;whiteSpace=wrap;html=1;" parent="o2fHaPVTxburHWxgGlT0-1" vertex="1">
          <mxGeometry y="26" width="320" height="26" as="geometry" />
        </mxCell>
        <mxCell id="G1drTpyBA8WG2RzDrL4C-5" value="+ m_state:&amp;nbsp;DH_STATE" style="text;strokeColor=none;fillColor=none;align=left;verticalAlign=top;spacingLeft=4;spacingRight=4;overflow=hidden;rotatable=0;points=[[0,0.5],[1,0.5]];portConstraint=eastwest;whiteSpace=wrap;html=1;" parent="o2fHaPVTxburHWxgGlT0-1" vertex="1">
          <mxGeometry y="52" width="320" height="26" as="geometry" />
        </mxCell>
        <mxCell id="G1drTpyBA8WG2RzDrL4C-7" value="+&amp;nbsp;m_hPipe:&amp;nbsp;HANDLE" style="text;strokeColor=none;fillColor=none;align=left;verticalAlign=top;spacingLeft=4;spacingRight=4;overflow=hidden;rotatable=0;points=[[0,0.5],[1,0.5]];portConstraint=eastwest;whiteSpace=wrap;html=1;" parent="o2fHaPVTxburHWxgGlT0-1" vertex="1">
          <mxGeometry y="78" width="320" height="26" as="geometry" />
        </mxCell>
        <mxCell id="G1drTpyBA8WG2RzDrL4C-6" value="+&amp;nbsp;m_evtStopPipeMonitor:&amp;nbsp;HANDLE" style="text;strokeColor=none;fillColor=none;align=left;verticalAlign=top;spacingLeft=4;spacingRight=4;overflow=hidden;rotatable=0;points=[[0,0.5],[1,0.5]];portConstraint=eastwest;whiteSpace=wrap;html=1;" parent="o2fHaPVTxburHWxgGlT0-1" vertex="1">
          <mxGeometry y="104" width="320" height="26" as="geometry" />
        </mxCell>
        <mxCell id="G1drTpyBA8WG2RzDrL4C-8" value="+&amp;nbsp;m_evtPipeMonitorFinished:&amp;nbsp;HANDLE" style="text;strokeColor=none;fillColor=none;align=left;verticalAlign=top;spacingLeft=4;spacingRight=4;overflow=hidden;rotatable=0;points=[[0,0.5],[1,0.5]];portConstraint=eastwest;whiteSpace=wrap;html=1;" parent="o2fHaPVTxburHWxgGlT0-1" vertex="1">
          <mxGeometry y="130" width="320" height="26" as="geometry" />
        </mxCell>
        <mxCell id="G1drTpyBA8WG2RzDrL4C-10" value="+&amp;nbsp;m_hCommThread:&amp;nbsp;HANDLE" style="text;strokeColor=none;fillColor=none;align=left;verticalAlign=top;spacingLeft=4;spacingRight=4;overflow=hidden;rotatable=0;points=[[0,0.5],[1,0.5]];portConstraint=eastwest;whiteSpace=wrap;html=1;" parent="o2fHaPVTxburHWxgGlT0-1" vertex="1">
          <mxGeometry y="156" width="320" height="26" as="geometry" />
        </mxCell>
        <mxCell id="G1drTpyBA8WG2RzDrL4C-9" value="+ m_op: OVERLAPPED" style="text;strokeColor=none;fillColor=none;align=left;verticalAlign=top;spacingLeft=4;spacingRight=4;overflow=hidden;rotatable=0;points=[[0,0.5],[1,0.5]];portConstraint=eastwest;whiteSpace=wrap;html=1;" parent="o2fHaPVTxburHWxgGlT0-1" vertex="1">
          <mxGeometry y="182" width="320" height="26" as="geometry" />
        </mxCell>
        <mxCell id="G1drTpyBA8WG2RzDrL4C-12" value="+&amp;nbsp;m_dwTraceLevel: DWORD" style="text;strokeColor=none;fillColor=none;align=left;verticalAlign=top;spacingLeft=4;spacingRight=4;overflow=hidden;rotatable=0;points=[[0,0.5],[1,0.5]];portConstraint=eastwest;whiteSpace=wrap;html=1;" parent="o2fHaPVTxburHWxgGlT0-1" vertex="1">
          <mxGeometry y="208" width="320" height="26" as="geometry" />
        </mxCell>
        <mxCell id="G1drTpyBA8WG2RzDrL4C-11" value="+&amp;nbsp;m_dwParamFormat: DWORD" style="text;strokeColor=none;fillColor=none;align=left;verticalAlign=top;spacingLeft=4;spacingRight=4;overflow=hidden;rotatable=0;points=[[0,0.5],[1,0.5]];portConstraint=eastwest;whiteSpace=wrap;html=1;" parent="o2fHaPVTxburHWxgGlT0-1" vertex="1">
          <mxGeometry y="234" width="320" height="26" as="geometry" />
        </mxCell>
        <mxCell id="G1drTpyBA8WG2RzDrL4C-13" value="+&amp;nbsp;m_OnClientConnected: void(*)(DH_PIPE*)" style="text;strokeColor=none;fillColor=none;align=left;verticalAlign=top;spacingLeft=4;spacingRight=4;overflow=hidden;rotatable=0;points=[[0,0.5],[1,0.5]];portConstraint=eastwest;whiteSpace=wrap;html=1;" parent="o2fHaPVTxburHWxgGlT0-1" vertex="1">
          <mxGeometry y="260" width="320" height="26" as="geometry" />
        </mxCell>
        <mxCell id="G1drTpyBA8WG2RzDrL4C-14" value="+&amp;nbsp;m_OnClientDisconnected: void(*)(DH_PIPE*)" style="text;strokeColor=none;fillColor=none;align=left;verticalAlign=top;spacingLeft=4;spacingRight=4;overflow=hidden;rotatable=0;points=[[0,0.5],[1,0.5]];portConstraint=eastwest;whiteSpace=wrap;html=1;" parent="o2fHaPVTxburHWxgGlT0-1" vertex="1">
          <mxGeometry y="286" width="320" height="26" as="geometry" />
        </mxCell>
        <mxCell id="o2fHaPVTxburHWxgGlT0-3" value="" style="line;strokeWidth=1;fillColor=none;align=left;verticalAlign=middle;spacingTop=-1;spacingLeft=3;spacingRight=3;rotatable=0;labelPosition=right;points=[];portConstraint=eastwest;strokeColor=inherit;" parent="o2fHaPVTxburHWxgGlT0-1" vertex="1">
          <mxGeometry y="312" width="320" height="8" as="geometry" />
        </mxCell>
        <mxCell id="o2fHaPVTxburHWxgGlT0-4" value="+ StartComm(): void" style="text;strokeColor=none;fillColor=none;align=left;verticalAlign=top;spacingLeft=4;spacingRight=4;overflow=hidden;rotatable=0;points=[[0,0.5],[1,0.5]];portConstraint=eastwest;whiteSpace=wrap;html=1;" parent="o2fHaPVTxburHWxgGlT0-1" vertex="1">
          <mxGeometry y="320" width="320" height="26" as="geometry" />
        </mxCell>
        <mxCell id="G1drTpyBA8WG2RzDrL4C-1" value="+ StopComm(): void" style="text;strokeColor=none;fillColor=none;align=left;verticalAlign=top;spacingLeft=4;spacingRight=4;overflow=hidden;rotatable=0;points=[[0,0.5],[1,0.5]];portConstraint=eastwest;whiteSpace=wrap;html=1;" parent="o2fHaPVTxburHWxgGlT0-1" vertex="1">
          <mxGeometry y="346" width="320" height="26" as="geometry" />
        </mxCell>
        <mxCell id="G1drTpyBA8WG2RzDrL4C-2" value="+ GetPipeHandle() const: HANDLE" style="text;strokeColor=none;fillColor=none;align=left;verticalAlign=top;spacingLeft=4;spacingRight=4;overflow=hidden;rotatable=0;points=[[0,0.5],[1,0.5]];portConstraint=eastwest;whiteSpace=wrap;html=1;" parent="o2fHaPVTxburHWxgGlT0-1" vertex="1">
          <mxGeometry y="372" width="320" height="26" as="geometry" />
        </mxCell>
        <mxCell id="G1drTpyBA8WG2RzDrL4C-3" value="+ &amp;nbsp;IsCommActive() const: bool" style="text;strokeColor=none;fillColor=none;align=left;verticalAlign=top;spacingLeft=4;spacingRight=4;overflow=hidden;rotatable=0;points=[[0,0.5],[1,0.5]];portConstraint=eastwest;whiteSpace=wrap;html=1;" parent="o2fHaPVTxburHWxgGlT0-1" vertex="1">
          <mxGeometry y="398" width="320" height="26" as="geometry" />
        </mxCell>
        <mxCell id="G1drTpyBA8WG2RzDrL4C-4" value="+ GetPipeState() const: DH_STATE" style="text;strokeColor=none;fillColor=none;align=left;verticalAlign=top;spacingLeft=4;spacingRight=4;overflow=hidden;rotatable=0;points=[[0,0.5],[1,0.5]];portConstraint=eastwest;whiteSpace=wrap;html=1;" parent="o2fHaPVTxburHWxgGlT0-1" vertex="1">
          <mxGeometry y="424" width="320" height="26" as="geometry" />
        </mxCell>
        <mxCell id="G1drTpyBA8WG2RzDrL4C-17" value="+ GetTraceLevel(): DWORD" style="text;strokeColor=none;fillColor=none;align=left;verticalAlign=top;spacingLeft=4;spacingRight=4;overflow=hidden;rotatable=0;points=[[0,0.5],[1,0.5]];portConstraint=eastwest;whiteSpace=wrap;html=1;" parent="o2fHaPVTxburHWxgGlT0-1" vertex="1">
          <mxGeometry y="450" width="320" height="26" as="geometry" />
        </mxCell>
        <mxCell id="G1drTpyBA8WG2RzDrL4C-18" value="+ GetParamFormat() const: DWORD" style="text;strokeColor=none;fillColor=none;align=left;verticalAlign=top;spacingLeft=4;spacingRight=4;overflow=hidden;rotatable=0;points=[[0,0.5],[1,0.5]];portConstraint=eastwest;whiteSpace=wrap;html=1;" parent="o2fHaPVTxburHWxgGlT0-1" vertex="1">
          <mxGeometry y="476" width="320" height="26" as="geometry" />
        </mxCell>
        <mxCell id="G1drTpyBA8WG2RzDrL4C-19" value="+ PipeMonitorThread(LPVOID pParam): static DWORD" style="text;strokeColor=none;fillColor=none;align=left;verticalAlign=top;spacingLeft=4;spacingRight=4;overflow=hidden;rotatable=0;points=[[0,0.5],[1,0.5]];portConstraint=eastwest;whiteSpace=wrap;html=1;" parent="o2fHaPVTxburHWxgGlT0-1" vertex="1">
          <mxGeometry y="502" width="320" height="26" as="geometry" />
        </mxCell>
        <mxCell id="wuIqINjODyEhfiV5nPqK-1" value="&lt;div style=&quot;box-sizing:border-box;width:100%;background:#e4e4e4;padding:2px;&quot;&gt;&lt;font color=&quot;#000000&quot;&gt;&lt;b&gt;DH_STATE&lt;/b&gt;&lt;/font&gt;&lt;/div&gt;&lt;table style=&quot;width:100%;font-size:1em;&quot; cellpadding=&quot;2&quot; cellspacing=&quot;0&quot;&gt;&lt;tbody&gt;&lt;tr&gt;&lt;td&gt;PIPE_INITIAL&lt;/td&gt;&lt;td&gt;initial&lt;/td&gt;&lt;/tr&gt;&lt;tr&gt;&lt;td&gt;PIPE_CONNECTED&lt;/td&gt;&lt;td&gt;connected&lt;/td&gt;&lt;/tr&gt;&lt;tr&gt;&lt;td&gt;&lt;br&gt;&lt;/td&gt;&lt;td&gt;&lt;br&gt;&lt;/td&gt;&lt;/tr&gt;&lt;/tbody&gt;&lt;/table&gt;" style="verticalAlign=top;align=left;overflow=fill;html=1;whiteSpace=wrap;" parent="1" vertex="1">
          <mxGeometry x="40" y="40" width="320" height="80" as="geometry" />
        </mxCell>
        <mxCell id="G1drTpyBA8WG2RzDrL4C-15" value="&lt;div style=&quot;box-sizing:border-box;width:100%;background:#e4e4e4;padding:2px;&quot;&gt;&lt;font color=&quot;#000000&quot;&gt;&lt;b&gt;Trace Level (DWORD)&lt;/b&gt;&lt;/font&gt;&lt;/div&gt;&lt;table style=&quot;width:100%;font-size:1em;&quot; cellpadding=&quot;2&quot; cellspacing=&quot;0&quot;&gt;&lt;tbody&gt;&lt;tr&gt;&lt;td&gt;0&lt;/td&gt;&lt;td&gt;only SQL statements&lt;/td&gt;&lt;/tr&gt;&lt;tr&gt;&lt;td&gt;1,2,3&lt;/td&gt;&lt;td&gt;comments levels&lt;/td&gt;&lt;/tr&gt;&lt;tr&gt;&lt;td&gt;&lt;br&gt;&lt;/td&gt;&lt;td&gt;&lt;br&gt;&lt;/td&gt;&lt;/tr&gt;&lt;/tbody&gt;&lt;/table&gt;" style="verticalAlign=top;align=left;overflow=fill;html=1;whiteSpace=wrap;" parent="1" vertex="1">
          <mxGeometry x="40" y="160" width="320" height="80" as="geometry" />
        </mxCell>
        <mxCell id="G1drTpyBA8WG2RzDrL4C-16" value="&lt;div style=&quot;box-sizing:border-box;width:100%;background:#e4e4e4;padding:2px;&quot;&gt;&lt;font color=&quot;#000000&quot;&gt;&lt;b&gt;Param Format (DWORD)&lt;/b&gt;&lt;/font&gt;&lt;/div&gt;&lt;table style=&quot;width:100%;font-size:1em;&quot; cellpadding=&quot;2&quot; cellspacing=&quot;0&quot;&gt;&lt;tbody&gt;&lt;tr&gt;&lt;td&gt;0&lt;/td&gt;&lt;td&gt;default&lt;/td&gt;&lt;/tr&gt;&lt;tr&gt;&lt;td&gt;1&lt;/td&gt;&lt;td&gt;no truncation&lt;/td&gt;&lt;/tr&gt;&lt;tr&gt;&lt;td&gt;2&lt;/td&gt;&lt;td&gt;pgAdmin compatible&lt;br&gt;&lt;/td&gt;&lt;/tr&gt;&lt;/tbody&gt;&lt;/table&gt;" style="verticalAlign=top;align=left;overflow=fill;html=1;whiteSpace=wrap;" parent="1" vertex="1">
          <mxGeometry x="40" y="280" width="320" height="80" as="geometry" />
        </mxCell>
        <mxCell id="G1drTpyBA8WG2RzDrL4C-20" value="CDHPipes" style="swimlane;fontStyle=1;align=center;verticalAlign=top;childLayout=stackLayout;horizontal=1;startSize=26;horizontalStack=0;resizeParent=1;resizeParentMax=0;resizeLast=0;collapsible=1;marginBottom=0;whiteSpace=wrap;html=1;" parent="1" vertex="1">
          <mxGeometry x="840" y="40" width="320" height="536" as="geometry" />
        </mxCell>
        <mxCell id="G1drTpyBA8WG2RzDrL4C-21" value="+ m_rwpPipes:&amp;nbsp;ReadWriteProtector" style="text;strokeColor=none;fillColor=none;align=left;verticalAlign=top;spacingLeft=4;spacingRight=4;overflow=hidden;rotatable=0;points=[[0,0.5],[1,0.5]];portConstraint=eastwest;whiteSpace=wrap;html=1;" parent="G1drTpyBA8WG2RzDrL4C-20" vertex="1">
          <mxGeometry y="26" width="320" height="26" as="geometry" />
        </mxCell>
        <mxCell id="G1drTpyBA8WG2RzDrL4C-26" value="+&amp;nbsp;m_availablePipes: int" style="text;strokeColor=none;fillColor=none;align=left;verticalAlign=top;spacingLeft=4;spacingRight=4;overflow=hidden;rotatable=0;points=[[0,0.5],[1,0.5]];portConstraint=eastwest;whiteSpace=wrap;html=1;" parent="G1drTpyBA8WG2RzDrL4C-20" vertex="1">
          <mxGeometry y="52" width="320" height="26" as="geometry" />
        </mxCell>
        <mxCell id="G1drTpyBA8WG2RzDrL4C-27" value="+&amp;nbsp;m_bConnected: bool // true if any connected" style="text;strokeColor=none;fillColor=none;align=left;verticalAlign=top;spacingLeft=4;spacingRight=4;overflow=hidden;rotatable=0;points=[[0,0.5],[1,0.5]];portConstraint=eastwest;whiteSpace=wrap;html=1;" parent="G1drTpyBA8WG2RzDrL4C-20" vertex="1">
          <mxGeometry y="78" width="320" height="26" as="geometry" />
        </mxCell>
        <mxCell id="G1drTpyBA8WG2RzDrL4C-24" value="+&amp;nbsp;m_lastCheck: unsigned" style="text;strokeColor=none;fillColor=none;align=left;verticalAlign=top;spacingLeft=4;spacingRight=4;overflow=hidden;rotatable=0;points=[[0,0.5],[1,0.5]];portConstraint=eastwest;whiteSpace=wrap;html=1;" parent="G1drTpyBA8WG2RzDrL4C-20" vertex="1">
          <mxGeometry y="104" width="320" height="26" as="geometry" />
        </mxCell>
        <mxCell id="G1drTpyBA8WG2RzDrL4C-25" value="&lt;font color=&quot;#000000&quot;&gt;+&amp;nbsp;m_pipes:&amp;nbsp;map&amp;lt;HANDLE, DH_PIPE*&amp;gt;&lt;/font&gt;" style="text;strokeColor=none;fillColor=none;align=left;verticalAlign=top;spacingLeft=4;spacingRight=4;overflow=hidden;rotatable=0;points=[[0,0.5],[1,0.5]];portConstraint=eastwest;whiteSpace=wrap;html=1;labelBackgroundColor=#ffff00;" parent="G1drTpyBA8WG2RzDrL4C-20" vertex="1">
          <mxGeometry y="130" width="320" height="26" as="geometry" />
        </mxCell>
        <mxCell id="G1drTpyBA8WG2RzDrL4C-28" value="+&amp;nbsp;m_outbuffer: BYTE[OUT_BUFSIZE]" style="text;strokeColor=none;fillColor=none;align=left;verticalAlign=top;spacingLeft=4;spacingRight=4;overflow=hidden;rotatable=0;points=[[0,0.5],[1,0.5]];portConstraint=eastwest;whiteSpace=wrap;html=1;" parent="G1drTpyBA8WG2RzDrL4C-20" vertex="1">
          <mxGeometry y="156" width="320" height="26" as="geometry" />
        </mxCell>
        <mxCell id="G1drTpyBA8WG2RzDrL4C-22" value="" style="line;strokeWidth=1;fillColor=none;align=left;verticalAlign=middle;spacingTop=-1;spacingLeft=3;spacingRight=3;rotatable=0;labelPosition=right;points=[];portConstraint=eastwest;strokeColor=inherit;" parent="G1drTpyBA8WG2RzDrL4C-20" vertex="1">
          <mxGeometry y="182" width="320" height="8" as="geometry" />
        </mxCell>
        <mxCell id="G1drTpyBA8WG2RzDrL4C-23" value="+&amp;nbsp;AddPipeInstance():&amp;nbsp;DH_PIPE*" style="text;strokeColor=none;fillColor=none;align=left;verticalAlign=top;spacingLeft=4;spacingRight=4;overflow=hidden;rotatable=0;points=[[0,0.5],[1,0.5]];portConstraint=eastwest;whiteSpace=wrap;html=1;" parent="G1drTpyBA8WG2RzDrL4C-20" vertex="1">
          <mxGeometry y="190" width="320" height="26" as="geometry" />
        </mxCell>
        <mxCell id="G1drTpyBA8WG2RzDrL4C-29" value="+&amp;nbsp;GetOutBuffer():&amp;nbsp;BYTE*" style="text;strokeColor=none;fillColor=none;align=left;verticalAlign=top;spacingLeft=4;spacingRight=4;overflow=hidden;rotatable=0;points=[[0,0.5],[1,0.5]];portConstraint=eastwest;whiteSpace=wrap;html=1;" parent="G1drTpyBA8WG2RzDrL4C-20" vertex="1">
          <mxGeometry y="216" width="320" height="26" as="geometry" />
        </mxCell>
        <mxCell id="G1drTpyBA8WG2RzDrL4C-30" value="+&amp;nbsp;GetAggregateParamFormat(): DWORD" style="text;strokeColor=none;fillColor=none;align=left;verticalAlign=top;spacingLeft=4;spacingRight=4;overflow=hidden;rotatable=0;points=[[0,0.5],[1,0.5]];portConstraint=eastwest;whiteSpace=wrap;html=1;" parent="G1drTpyBA8WG2RzDrL4C-20" vertex="1">
          <mxGeometry y="242" width="320" height="26" as="geometry" />
        </mxCell>
        <mxCell id="G1drTpyBA8WG2RzDrL4C-31" value="+&amp;nbsp;IsTraceEnabled(): BOOL" style="text;strokeColor=none;fillColor=none;align=left;verticalAlign=top;spacingLeft=4;spacingRight=4;overflow=hidden;rotatable=0;points=[[0,0.5],[1,0.5]];portConstraint=eastwest;whiteSpace=wrap;html=1;" parent="G1drTpyBA8WG2RzDrL4C-20" vertex="1">
          <mxGeometry y="268" width="320" height="26" as="geometry" />
        </mxCell>
        <mxCell id="G1drTpyBA8WG2RzDrL4C-32" value="+&amp;nbsp;Clear(): void" style="text;strokeColor=none;fillColor=none;align=left;verticalAlign=top;spacingLeft=4;spacingRight=4;overflow=hidden;rotatable=0;points=[[0,0.5],[1,0.5]];portConstraint=eastwest;whiteSpace=wrap;html=1;" parent="G1drTpyBA8WG2RzDrL4C-20" vertex="1">
          <mxGeometry y="294" width="320" height="26" as="geometry" />
        </mxCell>
        <mxCell id="G1drTpyBA8WG2RzDrL4C-33" value="+&amp;nbsp;LogClientSQL(CLogContext* logContext, int cmdType, const char* sClientSQL, const char* sExecutedSQL, CMDPROFILE&amp;amp; profile, LONG cmdId): void" style="text;strokeColor=none;fillColor=none;align=left;verticalAlign=top;spacingLeft=4;spacingRight=4;overflow=hidden;rotatable=0;points=[[0,0.5],[1,0.5]];portConstraint=eastwest;whiteSpace=wrap;html=1;" parent="G1drTpyBA8WG2RzDrL4C-20" vertex="1">
          <mxGeometry y="320" width="320" height="50" as="geometry" />
        </mxCell>
        <mxCell id="G1drTpyBA8WG2RzDrL4C-34" value="+&amp;nbsp;LogError(CLogContext* logContext, const char* sClientSQL, const char* sError, CMDPROFILE&amp;amp; profile, LONG cmdId): void" style="text;strokeColor=none;fillColor=none;align=left;verticalAlign=top;spacingLeft=4;spacingRight=4;overflow=hidden;rotatable=0;points=[[0,0.5],[1,0.5]];portConstraint=eastwest;whiteSpace=wrap;html=1;" parent="G1drTpyBA8WG2RzDrL4C-20" vertex="1">
          <mxGeometry y="370" width="320" height="50" as="geometry" />
        </mxCell>
        <mxCell id="G1drTpyBA8WG2RzDrL4C-35" value="+&amp;nbsp;LogComment(CLogContext* logContext, COMMENT_LEVEL level, const char* sComment, LONG cmdId, va_list argList): void" style="text;strokeColor=none;fillColor=none;align=left;verticalAlign=top;spacingLeft=4;spacingRight=4;overflow=hidden;rotatable=0;points=[[0,0.5],[1,0.5]];portConstraint=eastwest;whiteSpace=wrap;html=1;" parent="G1drTpyBA8WG2RzDrL4C-20" vertex="1">
          <mxGeometry y="420" width="320" height="50" as="geometry" />
        </mxCell>
        <mxCell id="G1drTpyBA8WG2RzDrL4C-36" value="+&amp;nbsp;LogStartup(CLogContext* logContext, const char* sMessage, va_list argList): void" style="text;strokeColor=none;fillColor=none;align=left;verticalAlign=top;spacingLeft=4;spacingRight=4;overflow=hidden;rotatable=0;points=[[0,0.5],[1,0.5]];portConstraint=eastwest;whiteSpace=wrap;html=1;" parent="G1drTpyBA8WG2RzDrL4C-20" vertex="1">
          <mxGeometry y="470" width="320" height="40" as="geometry" />
        </mxCell>
        <mxCell id="G1drTpyBA8WG2RzDrL4C-37" value="+&amp;nbsp;LogMsg(const BYTE* baseAddr): void" style="text;strokeColor=none;fillColor=none;align=left;verticalAlign=top;spacingLeft=4;spacingRight=4;overflow=hidden;rotatable=0;points=[[0,0.5],[1,0.5]];portConstraint=eastwest;whiteSpace=wrap;html=1;" parent="G1drTpyBA8WG2RzDrL4C-20" vertex="1">
          <mxGeometry y="510" width="320" height="26" as="geometry" />
        </mxCell>
        <mxCell id="G1drTpyBA8WG2RzDrL4C-39" value="&lt;div&gt;Global Procedures&lt;/div&gt;+ ProfilerClientInit(): DWORD&lt;div&gt;+&amp;nbsp;ProfilerClientUninit(): DWORD&lt;/div&gt;&lt;div&gt;+&amp;nbsp;IsTraceEnabled(): BOOL&lt;/div&gt;&lt;div&gt;+&amp;nbsp;LogClientSQL(CLogContext* logContext, int cmdType, const char* sClientSQL, const char* sExecutedSQL, CMDPROFILE&amp;amp; profile, LONG cmdId = 0): void&lt;/div&gt;&lt;div&gt;+&amp;nbsp;LogError(CLogContext* logContext, const char* sClientSQL, const char* sError, CMDPROFILE&amp;amp; profile, LONG cmdId): void&lt;/div&gt;&lt;div&gt;+&amp;nbsp;LogComment(CLogContext* logContext, COMMENT_LEVEL level, const char* sClientSQL, LONG cmdId, ...): void&lt;/div&gt;&lt;div&gt;+&amp;nbsp;LogMsg(const BYTE* baseAddr): void&lt;/div&gt;&lt;div&gt;+&amp;nbsp;FormatClientSQL(const char* szSQL, DBPARAMS* pParams, DBCOUNTITEM cBindings, DBBINDING* rgBindings): string&lt;/div&gt;&lt;div&gt;+ FormatPreparedClientSQL(const char* szSQL, DBPARAMS* pParams, DBCOUNTITEM cBindings, DBBINDING* rgBindings): string&lt;br&gt;&lt;/div&gt;&lt;div&gt;+&amp;nbsp;FormatPGSQL(const char* szSQL, int nParams, const unsigned int* paramTypes, char** paramValues, const int* paramLengths, const int* paramFormats, bool bIntegerDatetimes): string&lt;/div&gt;&lt;div&gt;+&amp;nbsp;StringFormat(const char* format, ...): string&lt;/div&gt;" style="text;strokeColor=none;fillColor=none;align=left;verticalAlign=top;spacingLeft=4;spacingRight=4;overflow=hidden;rotatable=0;points=[[0,0.5],[1,0.5]];portConstraint=eastwest;whiteSpace=wrap;html=1;" parent="1" vertex="1">
          <mxGeometry x="1240" y="80" width="320" height="400" as="geometry" />
        </mxCell>
        <mxCell id="HT90mBf2sNKp5_UTaW-r-1" value="Sender Class Diagram" style="text;html=1;align=center;verticalAlign=middle;resizable=0;points=[];autosize=1;strokeColor=none;fillColor=none;fontSize=24;" parent="1" vertex="1">
          <mxGeometry x="1250" y="40" width="260" height="40" as="geometry" />
        </mxCell>
        <mxCell id="dHr7feODCr8jhs7JNd15-1" value="&lt;div style=&quot;box-sizing:border-box;width:100%;background:#e4e4e4;padding:2px;&quot;&gt;&lt;font color=&quot;#000000&quot;&gt;&lt;b&gt;remote commands and responses&lt;/b&gt;&lt;/font&gt;&lt;/div&gt;&lt;table style=&quot;width:100%;font-size:1em;&quot; cellpadding=&quot;2&quot; cellspacing=&quot;0&quot;&gt;&lt;tbody&gt;&lt;tr&gt;&lt;td&gt;MI_LISTPIPES_REQ&lt;br&gt;&lt;/td&gt;&lt;td&gt;1000&lt;/td&gt;&lt;/tr&gt;&lt;tr&gt;&lt;td&gt;MI_LISTPIPES_RESP&lt;/td&gt;&lt;td&gt;1001&lt;/td&gt;&lt;/tr&gt;&lt;tr&gt;&lt;td&gt;MI_LISTPIPES_NTF&lt;br&gt;&lt;/td&gt;&lt;td&gt;1002&lt;/td&gt;&lt;/tr&gt;&lt;tr&gt;&lt;td&gt;MI_TRACELEVEL_REQ&lt;/td&gt;&lt;td&gt;2000&lt;br&gt;&lt;/td&gt;&lt;/tr&gt;&lt;tr&gt;&lt;td&gt;MI_PRMFORMAT_REQ&lt;br&gt;&lt;/td&gt;&lt;td&gt;2001&lt;/td&gt;&lt;/tr&gt;&lt;/tbody&gt;&lt;/table&gt;" style="verticalAlign=top;align=left;overflow=fill;html=1;whiteSpace=wrap;" parent="1" vertex="1">
          <mxGeometry x="40" y="400" width="320" height="110" as="geometry" />
        </mxCell>
        <mxCell id="dHr7feODCr8jhs7JNd15-2" value="&lt;b&gt;RemMsg&lt;/b&gt;" style="swimlane;fontStyle=0;childLayout=stackLayout;horizontal=1;startSize=26;fillColor=none;horizontalStack=0;resizeParent=1;resizeParentMax=0;resizeLast=0;collapsible=1;marginBottom=0;whiteSpace=wrap;html=1;" parent="1" vertex="1">
          <mxGeometry x="40" y="640" width="320" height="280" as="geometry">
            <mxRectangle x="40" y="640" width="90" height="30" as="alternateBounds" />
          </mxGeometry>
        </mxCell>
        <mxCell id="dHr7feODCr8jhs7JNd15-3" value="+ m_msgID: WORD" style="text;strokeColor=none;fillColor=none;align=left;verticalAlign=top;spacingLeft=4;spacingRight=4;overflow=hidden;rotatable=0;points=[[0,0.5],[1,0.5]];portConstraint=eastwest;whiteSpace=wrap;html=1;" parent="dHr7feODCr8jhs7JNd15-2" vertex="1">
          <mxGeometry y="26" width="320" height="26" as="geometry" />
        </mxCell>
        <mxCell id="dHr7feODCr8jhs7JNd15-4" value="+ m_response: bool" style="text;strokeColor=none;fillColor=none;align=left;verticalAlign=top;spacingLeft=4;spacingRight=4;overflow=hidden;rotatable=0;points=[[0,0.5],[1,0.5]];portConstraint=eastwest;whiteSpace=wrap;html=1;" parent="dHr7feODCr8jhs7JNd15-2" vertex="1">
          <mxGeometry y="52" width="320" height="26" as="geometry" />
        </mxCell>
        <mxCell id="dHr7feODCr8jhs7JNd15-5" value="+ m_bResetReadItr: bool" style="text;strokeColor=none;fillColor=none;align=left;verticalAlign=top;spacingLeft=4;spacingRight=4;overflow=hidden;rotatable=0;points=[[0,0.5],[1,0.5]];portConstraint=eastwest;whiteSpace=wrap;html=1;" parent="dHr7feODCr8jhs7JNd15-2" vertex="1">
          <mxGeometry y="78" width="320" height="26" as="geometry" />
        </mxCell>
        <mxCell id="dHr7feODCr8jhs7JNd15-6" value="+ m_payload:&amp;nbsp;vector&amp;lt;BYTE&amp;gt;" style="text;strokeColor=none;fillColor=none;align=left;verticalAlign=top;spacingLeft=4;spacingRight=4;overflow=hidden;rotatable=0;points=[[0,0.5],[1,0.5]];portConstraint=eastwest;whiteSpace=wrap;html=1;" parent="dHr7feODCr8jhs7JNd15-2" vertex="1">
          <mxGeometry y="104" width="320" height="26" as="geometry" />
        </mxCell>
        <mxCell id="dHr7feODCr8jhs7JNd15-7" value="+ m_readItr:&amp;nbsp;vector&amp;lt;BYTE&amp;gt;::iterator" style="text;strokeColor=none;fillColor=none;align=left;verticalAlign=top;spacingLeft=4;spacingRight=4;overflow=hidden;rotatable=0;points=[[0,0.5],[1,0.5]];portConstraint=eastwest;whiteSpace=wrap;html=1;" parent="dHr7feODCr8jhs7JNd15-2" vertex="1">
          <mxGeometry y="130" width="320" height="26" as="geometry" />
        </mxCell>
        <mxCell id="dHr7feODCr8jhs7JNd15-8" value="+ m_expectedLen: DWORD" style="text;strokeColor=none;fillColor=none;align=left;verticalAlign=top;spacingLeft=4;spacingRight=4;overflow=hidden;rotatable=0;points=[[0,0.5],[1,0.5]];portConstraint=eastwest;whiteSpace=wrap;html=1;" parent="dHr7feODCr8jhs7JNd15-2" vertex="1">
          <mxGeometry y="156" width="320" height="26" as="geometry" />
        </mxCell>
        <mxCell id="dHr7feODCr8jhs7JNd15-9" value="+ m_pBuff: BYTE*" style="text;strokeColor=none;fillColor=none;align=left;verticalAlign=top;spacingLeft=4;spacingRight=4;overflow=hidden;rotatable=0;points=[[0,0.5],[1,0.5]];portConstraint=eastwest;whiteSpace=wrap;html=1;" parent="dHr7feODCr8jhs7JNd15-2" vertex="1">
          <mxGeometry y="182" width="320" height="26" as="geometry" />
        </mxCell>
        <mxCell id="dHr7feODCr8jhs7JNd15-11" value="" style="line;strokeWidth=1;fillColor=none;align=left;verticalAlign=middle;spacingTop=-1;spacingLeft=3;spacingRight=3;rotatable=0;labelPosition=right;points=[];portConstraint=eastwest;strokeColor=inherit;" parent="dHr7feODCr8jhs7JNd15-2" vertex="1">
          <mxGeometry y="208" width="320" height="8" as="geometry" />
        </mxCell>
        <mxCell id="dHr7feODCr8jhs7JNd15-12" value="+ GetDataToSend(DWORD&amp;amp; totalLen): const BYTE*" style="text;strokeColor=none;fillColor=none;align=left;verticalAlign=top;spacingLeft=4;spacingRight=4;overflow=hidden;rotatable=0;points=[[0,0.5],[1,0.5]];portConstraint=eastwest;whiteSpace=wrap;html=1;" parent="dHr7feODCr8jhs7JNd15-2" vertex="1">
          <mxGeometry y="216" width="320" height="26" as="geometry" />
        </mxCell>
        <mxCell id="dHr7feODCr8jhs7JNd15-13" value="+ SetFromReceivedData(BYTE* pData, DWORD dataLen): void" style="text;strokeColor=none;fillColor=none;align=left;verticalAlign=top;spacingLeft=4;spacingRight=4;overflow=hidden;rotatable=0;points=[[0,0.5],[1,0.5]];portConstraint=eastwest;whiteSpace=wrap;html=1;" parent="dHr7feODCr8jhs7JNd15-2" vertex="1">
          <mxGeometry y="242" width="320" height="38" as="geometry" />
        </mxCell>
        <mxCell id="dHr7feODCr8jhs7JNd15-14" value="CMDPROFILE" style="swimlane;fontStyle=1;align=center;verticalAlign=top;childLayout=stackLayout;horizontal=1;startSize=26;horizontalStack=0;resizeParent=1;resizeParentMax=0;resizeLast=0;collapsible=1;marginBottom=0;whiteSpace=wrap;html=1;" parent="1" vertex="1">
          <mxGeometry x="440" y="640" width="320" height="450" as="geometry" />
        </mxCell>
        <mxCell id="dHr7feODCr8jhs7JNd15-15" value="+ _traceEnabled: BOOL" style="text;strokeColor=none;fillColor=none;align=left;verticalAlign=top;spacingLeft=4;spacingRight=4;overflow=hidden;rotatable=0;points=[[0,0.5],[1,0.5]];portConstraint=eastwest;whiteSpace=wrap;html=1;" parent="dHr7feODCr8jhs7JNd15-14" vertex="1">
          <mxGeometry y="26" width="320" height="26" as="geometry" />
        </mxCell>
        <mxCell id="dHr7feODCr8jhs7JNd15-22" value="+ _rows: LONG" style="text;strokeColor=none;fillColor=none;align=left;verticalAlign=top;spacingLeft=4;spacingRight=4;overflow=hidden;rotatable=0;points=[[0,0.5],[1,0.5]];portConstraint=eastwest;whiteSpace=wrap;html=1;" parent="dHr7feODCr8jhs7JNd15-14" vertex="1">
          <mxGeometry y="52" width="320" height="26" as="geometry" />
        </mxCell>
        <mxCell id="dHr7feODCr8jhs7JNd15-23" value="+ _begin:&amp;nbsp;LARGE_INTEGER" style="text;strokeColor=none;fillColor=none;align=left;verticalAlign=top;spacingLeft=4;spacingRight=4;overflow=hidden;rotatable=0;points=[[0,0.5],[1,0.5]];portConstraint=eastwest;whiteSpace=wrap;html=1;" parent="dHr7feODCr8jhs7JNd15-14" vertex="1">
          <mxGeometry y="78" width="320" height="26" as="geometry" />
        </mxCell>
        <mxCell id="dHr7feODCr8jhs7JNd15-24" value="+ _end:&amp;nbsp;LARGE_INTEGER" style="text;strokeColor=none;fillColor=none;align=left;verticalAlign=top;spacingLeft=4;spacingRight=4;overflow=hidden;rotatable=0;points=[[0,0.5],[1,0.5]];portConstraint=eastwest;whiteSpace=wrap;html=1;" parent="dHr7feODCr8jhs7JNd15-14" vertex="1">
          <mxGeometry y="104" width="320" height="26" as="geometry" />
        </mxCell>
        <mxCell id="dHr7feODCr8jhs7JNd15-25" value="+ _elapsed:&amp;nbsp;TRC_TIME" style="text;strokeColor=none;fillColor=none;align=left;verticalAlign=top;spacingLeft=4;spacingRight=4;overflow=hidden;rotatable=0;points=[[0,0.5],[1,0.5]];portConstraint=eastwest;whiteSpace=wrap;html=1;" parent="dHr7feODCr8jhs7JNd15-14" vertex="1">
          <mxGeometry y="130" width="320" height="26" as="geometry" />
        </mxCell>
        <mxCell id="dHr7feODCr8jhs7JNd15-26" value="+ _timestamp:&amp;nbsp;TRC_TIME" style="text;strokeColor=none;fillColor=none;align=left;verticalAlign=top;spacingLeft=4;spacingRight=4;overflow=hidden;rotatable=0;points=[[0,0.5],[1,0.5]];portConstraint=eastwest;whiteSpace=wrap;html=1;" parent="dHr7feODCr8jhs7JNd15-14" vertex="1">
          <mxGeometry y="156" width="320" height="26" as="geometry" />
        </mxCell>
        <mxCell id="dHr7feODCr8jhs7JNd15-27" value="+ _parse:&amp;nbsp;TRC_TIME" style="text;strokeColor=none;fillColor=none;align=left;verticalAlign=top;spacingLeft=4;spacingRight=4;overflow=hidden;rotatable=0;points=[[0,0.5],[1,0.5]];portConstraint=eastwest;whiteSpace=wrap;html=1;" parent="dHr7feODCr8jhs7JNd15-14" vertex="1">
          <mxGeometry y="182" width="320" height="26" as="geometry" />
        </mxCell>
        <mxCell id="dHr7feODCr8jhs7JNd15-28" value="+ _prepare:&amp;nbsp;TRC_TIME" style="text;strokeColor=none;fillColor=none;align=left;verticalAlign=top;spacingLeft=4;spacingRight=4;overflow=hidden;rotatable=0;points=[[0,0.5],[1,0.5]];portConstraint=eastwest;whiteSpace=wrap;html=1;" parent="dHr7feODCr8jhs7JNd15-14" vertex="1">
          <mxGeometry y="208" width="320" height="26" as="geometry" />
        </mxCell>
        <mxCell id="dHr7feODCr8jhs7JNd15-29" value="+ _execute:&amp;nbsp;TRC_TIME" style="text;strokeColor=none;fillColor=none;align=left;verticalAlign=top;spacingLeft=4;spacingRight=4;overflow=hidden;rotatable=0;points=[[0,0.5],[1,0.5]];portConstraint=eastwest;whiteSpace=wrap;html=1;" parent="dHr7feODCr8jhs7JNd15-14" vertex="1">
          <mxGeometry y="234" width="320" height="26" as="geometry" />
        </mxCell>
        <mxCell id="dHr7feODCr8jhs7JNd15-30" value="+ _getdata:&amp;nbsp;TRC_TIME" style="text;strokeColor=none;fillColor=none;align=left;verticalAlign=top;spacingLeft=4;spacingRight=4;overflow=hidden;rotatable=0;points=[[0,0.5],[1,0.5]];portConstraint=eastwest;whiteSpace=wrap;html=1;" parent="dHr7feODCr8jhs7JNd15-14" vertex="1">
          <mxGeometry y="260" width="320" height="26" as="geometry" />
        </mxCell>
        <mxCell id="dHr7feODCr8jhs7JNd15-31" value="+ _cursor:&amp;nbsp;CURSOR_TYPE" style="text;strokeColor=none;fillColor=none;align=left;verticalAlign=top;spacingLeft=4;spacingRight=4;overflow=hidden;rotatable=0;points=[[0,0.5],[1,0.5]];portConstraint=eastwest;whiteSpace=wrap;html=1;" parent="dHr7feODCr8jhs7JNd15-14" vertex="1">
          <mxGeometry y="286" width="320" height="26" as="geometry" />
        </mxCell>
        <mxCell id="dHr7feODCr8jhs7JNd15-32" value="+ _was_logged: BOOL" style="text;strokeColor=none;fillColor=none;align=left;verticalAlign=top;spacingLeft=4;spacingRight=4;overflow=hidden;rotatable=0;points=[[0,0.5],[1,0.5]];portConstraint=eastwest;whiteSpace=wrap;html=1;" parent="dHr7feODCr8jhs7JNd15-14" vertex="1">
          <mxGeometry y="312" width="320" height="26" as="geometry" />
        </mxCell>
        <mxCell id="dHr7feODCr8jhs7JNd15-16" value="" style="line;strokeWidth=1;fillColor=none;align=left;verticalAlign=middle;spacingTop=-1;spacingLeft=3;spacingRight=3;rotatable=0;labelPosition=right;points=[];portConstraint=eastwest;strokeColor=inherit;" parent="dHr7feODCr8jhs7JNd15-14" vertex="1">
          <mxGeometry y="338" width="320" height="8" as="geometry" />
        </mxCell>
        <mxCell id="dHr7feODCr8jhs7JNd15-17" value="+ Start(void): void" style="text;strokeColor=none;fillColor=none;align=left;verticalAlign=top;spacingLeft=4;spacingRight=4;overflow=hidden;rotatable=0;points=[[0,0.5],[1,0.5]];portConstraint=eastwest;whiteSpace=wrap;html=1;" parent="dHr7feODCr8jhs7JNd15-14" vertex="1">
          <mxGeometry y="346" width="320" height="26" as="geometry" />
        </mxCell>
        <mxCell id="dHr7feODCr8jhs7JNd15-33" value="+ Stop(void): void" style="text;strokeColor=none;fillColor=none;align=left;verticalAlign=top;spacingLeft=4;spacingRight=4;overflow=hidden;rotatable=0;points=[[0,0.5],[1,0.5]];portConstraint=eastwest;whiteSpace=wrap;html=1;" parent="dHr7feODCr8jhs7JNd15-14" vertex="1">
          <mxGeometry y="372" width="320" height="26" as="geometry" />
        </mxCell>
        <mxCell id="dHr7feODCr8jhs7JNd15-34" value="+ StopStart(void): void" style="text;strokeColor=none;fillColor=none;align=left;verticalAlign=top;spacingLeft=4;spacingRight=4;overflow=hidden;rotatable=0;points=[[0,0.5],[1,0.5]];portConstraint=eastwest;whiteSpace=wrap;html=1;" parent="dHr7feODCr8jhs7JNd15-14" vertex="1">
          <mxGeometry y="398" width="320" height="26" as="geometry" />
        </mxCell>
        <mxCell id="dHr7feODCr8jhs7JNd15-35" value="+ Reset(void): void" style="text;strokeColor=none;fillColor=none;align=left;verticalAlign=top;spacingLeft=4;spacingRight=4;overflow=hidden;rotatable=0;points=[[0,0.5],[1,0.5]];portConstraint=eastwest;whiteSpace=wrap;html=1;" parent="dHr7feODCr8jhs7JNd15-14" vertex="1">
          <mxGeometry y="424" width="320" height="26" as="geometry" />
        </mxCell>
        <mxCell id="lGXGyqWjxtp8tL2Fdd4O-1" value=":Any" style="shape=umlLifeline;perimeter=lifelinePerimeter;whiteSpace=wrap;html=1;container=0;dropTarget=0;collapsible=0;recursiveResize=0;outlineConnect=0;portConstraint=eastwest;newEdgeStyle={&quot;edgeStyle&quot;:&quot;elbowEdgeStyle&quot;,&quot;elbow&quot;:&quot;vertical&quot;,&quot;curved&quot;:0,&quot;rounded&quot;:0};" parent="1" vertex="1">
          <mxGeometry x="920" y="680" width="100" height="300" as="geometry" />
        </mxCell>
        <mxCell id="lGXGyqWjxtp8tL2Fdd4O-2" value="" style="html=1;points=[];perimeter=orthogonalPerimeter;outlineConnect=0;targetShapes=umlLifeline;portConstraint=eastwest;newEdgeStyle={&quot;edgeStyle&quot;:&quot;elbowEdgeStyle&quot;,&quot;elbow&quot;:&quot;vertical&quot;,&quot;curved&quot;:0,&quot;rounded&quot;:0};" parent="lGXGyqWjxtp8tL2Fdd4O-1" vertex="1">
          <mxGeometry x="45" y="70" width="10" height="190" as="geometry" />
        </mxCell>
        <mxCell id="lGXGyqWjxtp8tL2Fdd4O-3" value="LogClientSQL" style="html=1;verticalAlign=bottom;startArrow=oval;endArrow=block;startSize=8;edgeStyle=elbowEdgeStyle;elbow=vertical;curved=0;rounded=0;" parent="lGXGyqWjxtp8tL2Fdd4O-1" target="lGXGyqWjxtp8tL2Fdd4O-2" edge="1">
          <mxGeometry relative="1" as="geometry">
            <mxPoint x="-70" y="70" as="sourcePoint" />
          </mxGeometry>
        </mxCell>
        <mxCell id="lGXGyqWjxtp8tL2Fdd4O-5" value=":CDHPipes" style="shape=umlLifeline;perimeter=lifelinePerimeter;whiteSpace=wrap;html=1;container=0;dropTarget=0;collapsible=0;recursiveResize=0;outlineConnect=0;portConstraint=eastwest;newEdgeStyle={&quot;edgeStyle&quot;:&quot;elbowEdgeStyle&quot;,&quot;elbow&quot;:&quot;vertical&quot;,&quot;curved&quot;:0,&quot;rounded&quot;:0};" parent="1" vertex="1">
          <mxGeometry x="1120" y="680" width="100" height="300" as="geometry" />
        </mxCell>
        <mxCell id="lGXGyqWjxtp8tL2Fdd4O-6" value="" style="html=1;points=[];perimeter=orthogonalPerimeter;outlineConnect=0;targetShapes=umlLifeline;portConstraint=eastwest;newEdgeStyle={&quot;edgeStyle&quot;:&quot;elbowEdgeStyle&quot;,&quot;elbow&quot;:&quot;vertical&quot;,&quot;curved&quot;:0,&quot;rounded&quot;:0};" parent="lGXGyqWjxtp8tL2Fdd4O-5" vertex="1">
          <mxGeometry x="45" y="80" width="10" height="170" as="geometry" />
        </mxCell>
        <mxCell id="lGXGyqWjxtp8tL2Fdd4O-7" value="m_dhPipes.LogClientSQL" style="html=1;verticalAlign=bottom;endArrow=block;edgeStyle=elbowEdgeStyle;elbow=vertical;curved=0;rounded=0;" parent="1" source="lGXGyqWjxtp8tL2Fdd4O-2" target="lGXGyqWjxtp8tL2Fdd4O-6" edge="1">
          <mxGeometry relative="1" as="geometry">
            <mxPoint x="1075" y="770" as="sourcePoint" />
            <Array as="points">
              <mxPoint x="1060" y="760" />
            </Array>
          </mxGeometry>
        </mxCell>
        <mxCell id="lGXGyqWjxtp8tL2Fdd4O-8" value="return" style="html=1;verticalAlign=bottom;endArrow=open;dashed=1;endSize=8;edgeStyle=elbowEdgeStyle;elbow=vertical;curved=0;rounded=0;" parent="1" source="lGXGyqWjxtp8tL2Fdd4O-6" target="lGXGyqWjxtp8tL2Fdd4O-2" edge="1">
          <mxGeometry relative="1" as="geometry">
            <mxPoint x="1075" y="845" as="targetPoint" />
            <Array as="points">
              <mxPoint x="1070" y="920" />
            </Array>
          </mxGeometry>
        </mxCell>
        <mxCell id="lGXGyqWjxtp8tL2Fdd4O-11" value="Win32" style="shape=umlLifeline;perimeter=lifelinePerimeter;whiteSpace=wrap;html=1;container=0;dropTarget=0;collapsible=0;recursiveResize=0;outlineConnect=0;portConstraint=eastwest;newEdgeStyle={&quot;edgeStyle&quot;:&quot;elbowEdgeStyle&quot;,&quot;elbow&quot;:&quot;vertical&quot;,&quot;curved&quot;:0,&quot;rounded&quot;:0};" parent="1" vertex="1">
          <mxGeometry x="1320" y="680" width="100" height="300" as="geometry" />
        </mxCell>
        <mxCell id="lGXGyqWjxtp8tL2Fdd4O-12" value="" style="html=1;points=[];perimeter=orthogonalPerimeter;outlineConnect=0;targetShapes=umlLifeline;portConstraint=eastwest;newEdgeStyle={&quot;edgeStyle&quot;:&quot;elbowEdgeStyle&quot;,&quot;elbow&quot;:&quot;vertical&quot;,&quot;curved&quot;:0,&quot;rounded&quot;:0};" parent="lGXGyqWjxtp8tL2Fdd4O-11" vertex="1">
          <mxGeometry x="45" y="80" width="10" height="170" as="geometry" />
        </mxCell>
        <mxCell id="lGXGyqWjxtp8tL2Fdd4O-14" value="WriteFile(pipe.GetPipeHandle())" style="html=1;verticalAlign=bottom;endArrow=block;edgeStyle=elbowEdgeStyle;elbow=vertical;curved=0;rounded=0;" parent="1" source="lGXGyqWjxtp8tL2Fdd4O-5" target="lGXGyqWjxtp8tL2Fdd4O-11" edge="1">
          <mxGeometry relative="1" as="geometry">
            <mxPoint x="1200" y="840" as="sourcePoint" />
            <Array as="points">
              <mxPoint x="1230" y="840" />
            </Array>
            <mxPoint x="1340" y="840" as="targetPoint" />
          </mxGeometry>
        </mxCell>
        <mxCell id="lGXGyqWjxtp8tL2Fdd4O-15" value="return" style="html=1;verticalAlign=bottom;endArrow=open;dashed=1;endSize=8;edgeStyle=elbowEdgeStyle;elbow=vertical;curved=0;rounded=0;" parent="1" source="lGXGyqWjxtp8tL2Fdd4O-11" target="lGXGyqWjxtp8tL2Fdd4O-6" edge="1">
          <mxGeometry relative="1" as="geometry">
            <mxPoint x="1180" y="880" as="targetPoint" />
            <Array as="points">
              <mxPoint x="1275" y="880" />
            </Array>
            <mxPoint x="1340" y="880" as="sourcePoint" />
          </mxGeometry>
        </mxCell>
        <mxCell id="lGXGyqWjxtp8tL2Fdd4O-16" value="for_each(pipe:m_pipes)" style="shape=umlFrame;whiteSpace=wrap;html=1;pointerEvents=0;align=left;dashed=1;" parent="1" vertex="1">
          <mxGeometry x="1149" y="772" width="241" height="128" as="geometry" />
        </mxCell>
        <mxCell id="jwuGv9ZVWl4Vk9RJWa4D-1" value="Diagram 1: Sending a message to PGNProfiler" style="text;html=1;align=center;verticalAlign=middle;resizable=1;points=[];autosize=0;strokeColor=#006EAF;fillColor=#1ba1e2;fontColor=#ffffff;" vertex="1" parent="1">
          <mxGeometry x="840" y="640" width="600" height="30" as="geometry" />
        </mxCell>
      </root>
    </mxGraphModel>
  </diagram>
</mxfile>
